<?xml version="1.0" encoding="UTF-8" standalone="no"?>
<svg
   version="1.1"
   id="Layer_1"
   x="0px"
   y="0px"
   width="100%"
   viewBox="0 0 1024 1024"
   enable-background="new 0 0 1024 1024"
   xml:space="preserve"
   sodipodi:docname="logo.svg"
   inkscape:version="1.3.2 (091e20e, 2023-11-25, custom)"
   xmlns:inkscape="http://www.inkscape.org/namespaces/inkscape"
   xmlns:sodipodi="http://sodipodi.sourceforge.net/DTD/sodipodi-0.dtd"
   xmlns:xlink="http://www.w3.org/1999/xlink"
   xmlns="http://www.w3.org/2000/svg"
   xmlns:svg="http://www.w3.org/2000/svg"><defs
   id="defs40"><linearGradient
     id="linearGradient131"
     inkscape:collect="always"><stop
       style="stop-color:#b3b3b3;stop-opacity:1;"
       offset="0"
       id="stop130" /><stop
       style="stop-color:#000000;stop-opacity:0;"
       offset="1"
       id="stop131" /></linearGradient><linearGradient
     id="linearGradient129"
     inkscape:collect="always"><stop
       style="stop-color:#b3b3b3;stop-opacity:1;"
       offset="0"
       id="stop128" /><stop
       style="stop-color:#000000;stop-opacity:0;"
       offset="1"
       id="stop129" /></linearGradient><linearGradient
     id="linearGradient127"
     inkscape:collect="always"><stop
       style="stop-color:#b3b3b3;stop-opacity:1;"
       offset="0"
       id="stop126" /><stop
       style="stop-color:#000000;stop-opacity:0;"
       offset="1"
       id="stop127" /></linearGradient><linearGradient
     id="linearGradient125"
     inkscape:collect="always"><stop
       style="stop-color:#b3b3b3;stop-opacity:1;"
       offset="0"
       id="stop124" /><stop
       style="stop-color:#000000;stop-opacity:0;"
       offset="1"
       id="stop125" /></linearGradient><linearGradient
     id="linearGradient123"
     inkscape:collect="always"><stop
       style="stop-color:#b3b3b3;stop-opacity:1;"
       offset="0"
       id="stop122" /><stop
       style="stop-color:#000000;stop-opacity:0;"
       offset="1"
       id="stop123" /></linearGradient><linearGradient
     id="linearGradient121"
     inkscape:collect="always"><stop
       style="stop-color:#b3b3b3;stop-opacity:1;"
       offset="0"
       id="stop120" /><stop
       style="stop-color:#000000;stop-opacity:0;"
       offset="1"
       id="stop121" /></linearGradient><linearGradient
     id="linearGradient119"
     inkscape:collect="always"><stop
       style="stop-color:#b3b3b3;stop-opacity:1;"
       offset="0"
       id="stop118" /><stop
       style="stop-color:#000000;stop-opacity:0;"
       offset="1"
       id="stop119" /></linearGradient><linearGradient
     id="linearGradient117"
     inkscape:collect="always"><stop
       style="stop-color:#b3b3b3;stop-opacity:1;"
       offset="0"
       id="stop93" /><stop
       style="stop-color:#000000;stop-opacity:0;"
       offset="1"
       id="stop94" /></linearGradient><linearGradient
     id="linearGradient1495"
     inkscape:collect="always"><stop
       style="stop-color:#3d9797;stop-opacity:1;"
       offset="0.17326732"
       id="stop1494" /><stop
       style="stop-color:#8ea1a1;stop-opacity:1;"
       offset="0.43564358"
       id="stop1496" /><stop
       style="stop-color:#677878;stop-opacity:1;"
       offset="0.64480197"
       id="stop1497" /><stop
       style="stop-color:#555555;stop-opacity:1;"
       offset="1"
       id="stop1495" /></linearGradient><linearGradient
     id="linearGradient1364"
     inkscape:collect="always"><stop
       style="stop-color:#5d5d5d;stop-opacity:1;"
       offset="0"
       id="stop1364" /><stop
       style="stop-color:#000000;stop-opacity:0;"
       offset="1"
       id="stop1365" /></linearGradient><linearGradient
     id="linearGradient1085"
     inkscape:collect="always"><stop
       style="stop-color:#b3b3b3;stop-opacity:1;"
       offset="0"
       id="stop1085" /><stop
       style="stop-color:#b3b3b3;stop-opacity:0;"
       offset="1"
       id="stop1086" /></linearGradient><linearGradient
     inkscape:collect="always"
     xlink:href="#linearGradient1085"
     id="linearGradient1086"
     x1="698.7295"
     y1="509.52353"
     x2="708.01156"
     y2="509.52353"
     gradientUnits="userSpaceOnUse"
     gradientTransform="matrix(1.9120037,0,0,1.8940652,-465.83674,-460.82625)" /><linearGradient
     inkscape:collect="always"
     xlink:href="#linearGradient1085"
     id="linearGradient1088"
     x1="337.72581"
     y1="619.62069"
     x2="347.19012"
     y2="619.62069"
     gradientUnits="userSpaceOnUse"
     gradientTransform="matrix(1.9120037,0,0,1.8940652,-465.83674,-460.82625)" /><linearGradient
     inkscape:collect="always"
     xlink:href="#linearGradient1085"
     id="linearGradient1089"
     x1="372.4836"
     y1="623.26914"
     x2="392.30975"
     y2="623.26914"
     gradientUnits="userSpaceOnUse"
     gradientTransform="matrix(1.9120037,0,0,1.8940652,-465.83674,-460.82625)" /><linearGradient
     inkscape:collect="always"
     xlink:href="#linearGradient1085"
     id="linearGradient1090"
     x1="383.74834"
     y1="397.19367"
     x2="392.96129"
     y2="397.19367"
     gradientUnits="userSpaceOnUse"
     gradientTransform="matrix(1.9120037,0,0,1.8940652,-465.83674,-460.82625)" /><linearGradient
     inkscape:collect="always"
     xlink:href="#linearGradient1085"
     id="linearGradient1091"
     x1="339.77457"
     y1="390.35595"
     x2="349.74655"
     y2="390.35595"
     gradientUnits="userSpaceOnUse"
     gradientTransform="matrix(1.9120037,0,0,1.8940652,-465.83674,-460.82625)" /><linearGradient
     inkscape:collect="always"
     xlink:href="#linearGradient123"
     id="linearGradient1092"
     x1="672.95743"
     y1="639.43928"
     x2="682.20572"
     y2="639.43928"
     gradientUnits="userSpaceOnUse"
     gradientTransform="matrix(1.9120037,0,0,1.8940652,-465.83674,-460.82625)" /><linearGradient
     inkscape:collect="always"
     xlink:href="#linearGradient121"
     id="linearGradient1093"
     x1="627.71885"
     y1="632.55222"
     x2="651.4378"
     y2="632.55222"
     gradientUnits="userSpaceOnUse"
     gradientTransform="matrix(1.9120037,0,0,1.8940652,-465.83674,-460.82625)" /><linearGradient
     inkscape:collect="always"
     xlink:href="#linearGradient129"
     id="linearGradient1094"
     x1="540.77218"
     y1="700.61592"
     x2="550.25098"
     y2="700.61592"
     gradientUnits="userSpaceOnUse"
     gradientTransform="matrix(1.9120037,0,0,1.8940652,-465.83674,-460.82625)" /><linearGradient
     inkscape:collect="always"
     xlink:href="#linearGradient1085"
     id="linearGradient1095"
     x1="472.41226"
     y1="700.60599"
     x2="481.92602"
     y2="700.60599"
     gradientUnits="userSpaceOnUse"
     gradientTransform="matrix(1.9120037,0,0,1.8940652,-465.83674,-460.82625)" /><linearGradient
     inkscape:collect="always"
     xlink:href="#linearGradient131"
     id="linearGradient1096"
     x1="483.71128"
     y1="700.19689"
     x2="539.0526"
     y2="700.19689"
     gradientUnits="userSpaceOnUse"
     gradientTransform="matrix(1.9120037,0,0,1.8940652,-465.83674,-460.82625)" /><linearGradient
     inkscape:collect="always"
     xlink:href="#linearGradient1085"
     id="linearGradient1097"
     x1="505.61987"
     y1="300.02237"
     x2="516.1603"
     y2="300.02237"
     gradientUnits="userSpaceOnUse"
     gradientTransform="matrix(1.9120037,0,0,1.8940652,-465.83674,-460.82625)" /><linearGradient
     inkscape:collect="always"
     xlink:href="#linearGradient1085"
     id="linearGradient1098"
     x1="483.34593"
     y1="337.02293"
     x2="494.023"
     y2="337.02293"
     gradientUnits="userSpaceOnUse"
     gradientTransform="matrix(1.9120037,0,0,1.8940652,-465.83674,-460.82625)" /><linearGradient
     inkscape:collect="always"
     xlink:href="#linearGradient1085"
     id="linearGradient1099"
     x1="527.2239"
     y1="337.01107"
     x2="538.18047"
     y2="337.01107"
     gradientUnits="userSpaceOnUse"
     gradientTransform="matrix(1.9120037,0,0,1.8940652,-465.83674,-460.82625)" /><linearGradient
     inkscape:collect="always"
     xlink:href="#linearGradient1085"
     id="linearGradient1100"
     x1="496.85874"
     y1="338.16166"
     x2="525.11145"
     y2="338.16166"
     gradientUnits="userSpaceOnUse"
     gradientTransform="matrix(1.9120037,0,0,1.8940652,-465.83674,-460.82625)" /><linearGradient
     inkscape:collect="always"
     xlink:href="#linearGradient1495"
     id="linearGradient1102"
     x1="458.31522"
     y1="513.85022"
     x2="565.65253"
     y2="513.85022"
     gradientUnits="userSpaceOnUse"
     gradientTransform="matrix(1.9120037,0,0,1.8940652,-465.83674,-460.82625)" /><linearGradient
     inkscape:collect="always"
     xlink:href="#linearGradient1085"
     id="linearGradient1103"
     x1="434.45232"
     y1="769.60924"
     x2="438.68716"
     y2="769.60924"
     gradientUnits="userSpaceOnUse"
     gradientTransform="matrix(1.9120037,0,0,1.8940652,-465.83674,-460.82625)" /><linearGradient
     inkscape:collect="always"
     xlink:href="#linearGradient1085"
     id="linearGradient1104"
     x1="260.04646"
     y1="580.81514"
     x2="268.31376"
     y2="580.81514"
     gradientUnits="userSpaceOnUse"
     gradientTransform="matrix(1.9120037,0,0,1.8940652,-465.83674,-460.82625)" /><linearGradient
     inkscape:collect="always"
     xlink:href="#linearGradient1085"
     id="linearGradient1105"
     x1="334.12586"
     y1="724.33408"
     x2="342.67387"
     y2="724.33408"
     gradientUnits="userSpaceOnUse"
     gradientTransform="matrix(1.9120037,0,0,1.8940652,-465.83674,-460.82625)" /><linearGradient
     inkscape:collect="always"
     xlink:href="#linearGradient1085"
     id="linearGradient1106"
     x1="601.72717"
     y1="760.75269"
     x2="610.73774"
     y2="760.75269"
     gradientUnits="userSpaceOnUse"
     gradientTransform="matrix(1.9120037,0,0,1.8940652,-465.83674,-460.82625)" /><linearGradient
     inkscape:collect="always"
     xlink:href="#linearGradient1085"
     id="linearGradient1108"
     x1="579.71621"
     y1="264.98243"
     x2="589.37928"
     y2="264.98243"
     gradientUnits="userSpaceOnUse"
     gradientTransform="matrix(1.9120037,0,0,1.8940652,-465.83674,-460.82625)" /><linearGradient
     inkscape:collect="always"
     xlink:href="#linearGradient1085"
     id="linearGradient1109"
     x1="680.71898"
     y1="289.95178"
     x2="690.22552"
     y2="289.95178"
     gradientUnits="userSpaceOnUse"
     gradientTransform="matrix(1.9120037,0,0,1.8940652,-465.83674,-460.82625)" /><linearGradient
     inkscape:collect="always"
     xlink:href="#linearGradient1085"
     id="linearGradient1111"
     x1="757.84055"
     y1="445.31209"
     x2="767.26441"
     y2="445.31209"
     gradientUnits="userSpaceOnUse"
     gradientTransform="matrix(1.9120037,0,0,1.8940652,-465.83674,-460.82625)" /><linearGradient
     inkscape:collect="always"
     xlink:href="#linearGradient1085"
     id="linearGradient1112"
     x1="310.09998"
     y1="310.27564"
     x2="319.90855"
     y2="310.27564"
     gradientUnits="userSpaceOnUse"
     gradientTransform="matrix(1.9120037,0,0,1.8940652,-465.83674,-460.82625)" /><linearGradient
     inkscape:collect="always"
     xlink:href="#linearGradient1085"
     id="linearGradient1113"
     x1="258.89832"
     y1="601.83523"
     x2="270.29178"
     y2="601.83523"
     gradientUnits="userSpaceOnUse"
     gradientTransform="matrix(1.9120037,0,0,1.8940652,-465.83674,-460.82625)" /><linearGradient
     inkscape:collect="always"
     xlink:href="#linearGradient1085"
     id="linearGradient1114"
     x1="252.63803"
     y1="589.443"
     x2="275.86253"
     y2="589.443"
     gradientUnits="userSpaceOnUse"
     gradientTransform="matrix(1.9120037,0,0,1.8940652,-465.83674,-460.82625)" /><linearGradient
     inkscape:collect="always"
     xlink:href="#linearGradient125"
     id="linearGradient1115"
     x1="602.80783"
     y1="716.82704"
     x2="660.66878"
     y2="716.82704"
     gradientUnits="userSpaceOnUse"
     gradientTransform="matrix(1.9120037,0,0,1.8940652,-465.83674,-460.82625)" /><linearGradient
     inkscape:collect="always"
     xlink:href="#linearGradient127"
     id="linearGradient1116"
     x1="602.63346"
     y1="728.97166"
     x2="660.81008"
     y2="728.97166"
     gradientUnits="userSpaceOnUse"
     gradientTransform="matrix(1.9120037,0,0,1.8940652,-465.83674,-460.82625)" /><linearGradient
     inkscape:collect="always"
     xlink:href="#linearGradient1085"
     id="linearGradient1117"
     x1="650.42286"
     y1="301.05075"
     x2="717.95093"
     y2="301.05075"
     gradientUnits="userSpaceOnUse"
     gradientTransform="matrix(1.9120037,0,0,1.8940652,-465.83674,-460.82625)" /><linearGradient
     inkscape:collect="always"
     xlink:href="#linearGradient1085"
     id="linearGradient1118"
     x1="650.20513"
     y1="313.10121"
     x2="717.94727"
     y2="313.10121"
     gradientUnits="userSpaceOnUse"
     gradientTransform="matrix(1.9120037,0,0,1.8940652,-465.83674,-460.82625)" /><linearGradient
     inkscape:collect="always"
     xlink:href="#linearGradient1085"
     id="linearGradient1119"
     x1="250.25856"
     y1="428.07771"
     x2="279.47029"
     y2="428.07771"
     gradientUnits="userSpaceOnUse"
     gradientTransform="matrix(1.9120037,0,0,1.8940652,-465.83674,-460.82625)" /><linearGradient
     inkscape:collect="always"
     xlink:href="#linearGradient1085"
     id="linearGradient1120"
     x1="373.05542"
     y1="737.76654"
     x2="410.11257"
     y2="737.76654"
     gradientUnits="userSpaceOnUse"
     gradientTransform="matrix(1.9120037,0,0,1.8940652,-465.83674,-460.82625)" /><linearGradient
     inkscape:collect="always"
     xlink:href="#linearGradient1085"
     id="linearGradient1121"
     x1="625.77202"
     y1="280.0385"
     x2="632.33745"
     y2="280.0385"
     gradientUnits="userSpaceOnUse"
     gradientTransform="matrix(1.9120037,0,0,1.8940652,-465.83674,-460.82625)" /><linearGradient
     inkscape:collect="always"
     xlink:href="#linearGradient1085"
     id="linearGradient1122"
     x1="613.70369"
     y1="280.33496"
     x2="620.34827"
     y2="280.33496"
     gradientUnits="userSpaceOnUse"
     gradientTransform="matrix(1.9120037,0,0,1.8940652,-465.83674,-460.82625)" /><linearGradient
     inkscape:collect="always"
     xlink:href="#linearGradient119"
     id="linearGradient1123"
     x1="728.88116"
     y1="594.18915"
     x2="779.99945"
     y2="594.18915"
     gradientUnits="userSpaceOnUse"
     gradientTransform="matrix(1.9120037,0,0,1.8940652,-465.83674,-460.82625)" /><linearGradient
     inkscape:collect="always"
     xlink:href="#linearGradient117"
     id="linearGradient1124"
     x1="372.99349"
     y1="284.65592"
     x2="411.54852"
     y2="284.65592"
     gradientUnits="userSpaceOnUse"
     gradientTransform="matrix(1.9120037,0,0,1.8940652,-465.83674,-460.82625)" /><linearGradient
     inkscape:collect="always"
     xlink:href="#linearGradient1495"
     id="linearGradient1125"
     x1="244.50514"
     y1="514.18683"
     x2="779.43488"
     y2="514.18683"
     gradientUnits="userSpaceOnUse"
     gradientTransform="matrix(1.9120037,0,0,1.8940652,-465.83674,-460.82625)" /><linearGradient
     inkscape:collect="always"
     xlink:href="#linearGradient1364"
     id="linearGradient1365"
     x1="458.31522"
     y1="513.85021"
     x2="565.65254"
     y2="513.85021"
     gradientUnits="userSpaceOnUse"
     gradientTransform="matrix(1.9120037,0,0,1.8940652,-465.83674,-460.82625)" /><linearGradient
     inkscape:collect="always"
     xlink:href="#linearGradient1085"
     id="linearGradient1497"
     gradientUnits="userSpaceOnUse"
     x1="481.2238"
     y1="315.03346"
     x2="542.02104"
     y2="315.03346"
     gradientTransform="matrix(1.9120037,0,0,1.8940652,-465.83674,-460.82625)" /><linearGradient
     inkscape:collect="always"
     xlink:href="#linearGradient1085"
     id="linearGradient79"
     gradientUnits="userSpaceOnUse"
     x1="625.41242"
     y1="393.79986"
     x2="655.26356"
     y2="393.79986"
     gradientTransform="matrix(1.9120037,0,0,1.8940652,-465.83674,-460.82625)" /><linearGradient
     inkscape:collect="always"
     xlink:href="#linearGradient1085"
     id="linearGradient80"
     gradientUnits="userSpaceOnUse"
     x1="625.41242"
     y1="393.79986"
     x2="655.26356"
     y2="393.79986"
     gradientTransform="matrix(1.9120037,0,0,1.8940652,-465.83674,-460.82625)" /><linearGradient
     inkscape:collect="always"
     xlink:href="#linearGradient1085"
     id="linearGradient81"
     gradientUnits="userSpaceOnUse"
     x1="625.41242"
     y1="393.79986"
     x2="655.26356"
     y2="393.79986"
     gradientTransform="matrix(1.9120037,0,0,1.8940652,-465.83674,-460.82625)" /><linearGradient
     inkscape:collect="always"
     xlink:href="#linearGradient1085"
     id="linearGradient82"
     gradientUnits="userSpaceOnUse"
     x1="625.41242"
     y1="393.79986"
     x2="655.26356"
     y2="393.79986"
     gradientTransform="matrix(1.9120037,0,0,1.8940652,-465.83674,-460.82625)" /><linearGradient
     inkscape:collect="always"
     xlink:href="#linearGradient1085"
     id="linearGradient83"
     gradientUnits="userSpaceOnUse"
     x1="625.41242"
     y1="393.79986"
     x2="655.26356"
     y2="393.79986"
     gradientTransform="matrix(1.9120037,0,0,1.8940652,-465.83674,-460.82625)" /><linearGradient
     inkscape:collect="always"
     xlink:href="#linearGradient1085"
     id="linearGradient84"
     gradientUnits="userSpaceOnUse"
     x1="625.41242"
     y1="393.79986"
     x2="655.26356"
     y2="393.79986"
     gradientTransform="matrix(1.9120037,0,0,1.8940652,-465.83674,-460.82625)" /><linearGradient
     inkscape:collect="always"
     xlink:href="#linearGradient1085"
     id="linearGradient85"
     gradientUnits="userSpaceOnUse"
     x1="625.41242"
     y1="393.79986"
     x2="655.26356"
     y2="393.79986"
     gradientTransform="matrix(1.9120037,0,0,1.8940652,-465.83674,-460.82625)" /><linearGradient
     inkscape:collect="always"
     xlink:href="#linearGradient1085"
     id="linearGradient86"
     gradientUnits="userSpaceOnUse"
     x1="625.41242"
     y1="393.79986"
     x2="655.26356"
     y2="393.79986"
     gradientTransform="matrix(1.9120037,0,0,1.8940652,-465.83674,-460.82625)" /><linearGradient
     inkscape:collect="always"
     xlink:href="#linearGradient1085"
     id="linearGradient87"
     gradientUnits="userSpaceOnUse"
     x1="625.41242"
     y1="393.79986"
     x2="655.26356"
     y2="393.79986"
     gradientTransform="matrix(1.9120037,0,0,1.8940652,-465.83674,-460.82625)" /><linearGradient
     inkscape:collect="always"
     xlink:href="#linearGradient1085"
     id="linearGradient88"
     gradientUnits="userSpaceOnUse"
     x1="625.41242"
     y1="393.79986"
     x2="655.26356"
     y2="393.79986"
     gradientTransform="matrix(1.9120037,0,0,1.8940652,-465.83674,-460.82625)" /><linearGradient
     inkscape:collect="always"
     xlink:href="#linearGradient1085"
     id="linearGradient89"
     gradientUnits="userSpaceOnUse"
     x1="625.41242"
     y1="393.79986"
     x2="655.26356"
     y2="393.79986"
     gradientTransform="matrix(1.9120037,0,0,1.8940652,-465.83674,-460.82625)" /><linearGradient
     inkscape:collect="always"
     xlink:href="#linearGradient1085"
     id="linearGradient90"
     gradientUnits="userSpaceOnUse"
     x1="625.41242"
     y1="393.79986"
     x2="655.26356"
     y2="393.79986"
     gradientTransform="matrix(1.9120037,0,0,1.8940652,-465.83674,-460.82625)" /><linearGradient
     inkscape:collect="always"
     xlink:href="#linearGradient1085"
     id="linearGradient91"
     gradientUnits="userSpaceOnUse"
     x1="625.41242"
     y1="393.79986"
     x2="655.26356"
     y2="393.79986"
     gradientTransform="matrix(1.9120037,0,0,1.8940652,-465.83674,-460.82625)" /><linearGradient
     inkscape:collect="always"
     xlink:href="#linearGradient1085"
     id="linearGradient92"
     gradientUnits="userSpaceOnUse"
     x1="625.41242"
     y1="393.79986"
     x2="655.26356"
     y2="393.79986"
     gradientTransform="matrix(1.9120037,0,0,1.8940652,-465.83674,-460.82625)" /><linearGradient
     inkscape:collect="always"
     xlink:href="#linearGradient1085"
     id="linearGradient94"
     gradientUnits="userSpaceOnUse"
     x1="625.41242"
     y1="393.79986"
     x2="655.26356"
     y2="393.79986"
     gradientTransform="matrix(1.9120037,0,0,1.8940652,-465.83674,-460.82625)" /><linearGradient
     inkscape:collect="always"
     xlink:href="#linearGradient1085"
     id="linearGradient95"
     gradientUnits="userSpaceOnUse"
     x1="625.41242"
     y1="393.79986"
     x2="655.26356"
     y2="393.79986"
     gradientTransform="matrix(1.9120037,0,0,1.8940652,-465.83674,-460.82625)" /><linearGradient
     inkscape:collect="always"
     xlink:href="#linearGradient1085"
     id="linearGradient96"
     gradientUnits="userSpaceOnUse"
     x1="625.41242"
     y1="393.79986"
     x2="655.26356"
     y2="393.79986"
     gradientTransform="matrix(1.9120037,0,0,1.8940652,-465.83674,-460.82625)" /><linearGradient
     inkscape:collect="always"
     xlink:href="#linearGradient1085"
     id="linearGradient97"
     gradientUnits="userSpaceOnUse"
     x1="625.41242"
     y1="393.79986"
     x2="655.26356"
     y2="393.79986"
     gradientTransform="matrix(1.9120037,0,0,1.8940652,-465.83674,-460.82625)" /><linearGradient
     inkscape:collect="always"
     xlink:href="#linearGradient1085"
     id="linearGradient98"
     gradientUnits="userSpaceOnUse"
     x1="625.41242"
     y1="393.79986"
     x2="655.26356"
     y2="393.79986"
     gradientTransform="matrix(1.9120037,0,0,1.8940652,-465.83674,-460.82625)" /><linearGradient
     inkscape:collect="always"
     xlink:href="#linearGradient1085"
     id="linearGradient99"
     gradientUnits="userSpaceOnUse"
     x1="625.41242"
     y1="393.79986"
     x2="655.26356"
     y2="393.79986"
     gradientTransform="matrix(1.9120037,0,0,1.8940652,-465.83674,-460.82625)" /><linearGradient
     inkscape:collect="always"
     xlink:href="#linearGradient1085"
     id="linearGradient100"
     gradientUnits="userSpaceOnUse"
     x1="625.41242"
     y1="393.79986"
     x2="655.26356"
     y2="393.79986"
     gradientTransform="matrix(1.9120037,0,0,1.8940652,-465.83674,-460.82625)" /><linearGradient
     inkscape:collect="always"
     xlink:href="#linearGradient1085"
     id="linearGradient101"
     gradientUnits="userSpaceOnUse"
     x1="625.41242"
     y1="393.79986"
     x2="655.26356"
     y2="393.79986"
     gradientTransform="matrix(1.9120037,0,0,1.8940652,-465.83674,-460.82625)" /><linearGradient
     inkscape:collect="always"
     xlink:href="#linearGradient1085"
     id="linearGradient102"
     gradientUnits="userSpaceOnUse"
     x1="625.41242"
     y1="393.79986"
     x2="655.26356"
     y2="393.79986"
     gradientTransform="matrix(1.9120037,0,0,1.8940652,-465.83674,-460.82625)" /><linearGradient
     inkscape:collect="always"
     xlink:href="#linearGradient1085"
     id="linearGradient103"
     gradientUnits="userSpaceOnUse"
     x1="625.41242"
     y1="393.79986"
     x2="655.26356"
     y2="393.79986"
     gradientTransform="matrix(1.9120037,0,0,1.8940652,-465.83674,-460.82625)" /><linearGradient
     inkscape:collect="always"
     xlink:href="#linearGradient1085"
     id="linearGradient104"
     gradientUnits="userSpaceOnUse"
     x1="625.41242"
     y1="393.79986"
     x2="655.26356"
     y2="393.79986"
     gradientTransform="matrix(1.9120037,0,0,1.8940652,-465.83674,-460.82625)" /><linearGradient
     inkscape:collect="always"
     xlink:href="#linearGradient1085"
     id="linearGradient105"
     gradientUnits="userSpaceOnUse"
     x1="625.41242"
     y1="393.79986"
     x2="655.26356"
     y2="393.79986"
     gradientTransform="matrix(1.9120037,0,0,1.8940652,-465.83674,-460.82625)" /><linearGradient
     inkscape:collect="always"
     xlink:href="#linearGradient1085"
     id="linearGradient106"
     gradientUnits="userSpaceOnUse"
     x1="625.41242"
     y1="393.79986"
     x2="655.26356"
     y2="393.79986"
     gradientTransform="matrix(1.9120037,0,0,1.8940652,-465.83674,-460.82625)" /><linearGradient
     inkscape:collect="always"
     xlink:href="#linearGradient1085"
     id="linearGradient107"
     gradientUnits="userSpaceOnUse"
     x1="625.41242"
     y1="393.79986"
     x2="655.26356"
     y2="393.79986"
     gradientTransform="matrix(1.9120037,0,0,1.8940652,-465.83674,-460.82625)" /><linearGradient
     inkscape:collect="always"
     xlink:href="#linearGradient1085"
     id="linearGradient108"
     gradientUnits="userSpaceOnUse"
     x1="625.41242"
     y1="393.79986"
     x2="655.26356"
     y2="393.79986"
     gradientTransform="matrix(1.9120037,0,0,1.8940652,-465.83674,-460.82625)" /><linearGradient
     inkscape:collect="always"
     xlink:href="#linearGradient1085"
     id="linearGradient109"
     gradientUnits="userSpaceOnUse"
     x1="625.41242"
     y1="393.79986"
     x2="655.26356"
     y2="393.79986"
     gradientTransform="matrix(1.9120037,0,0,1.8940652,-465.83674,-460.82625)" /><linearGradient
     inkscape:collect="always"
     xlink:href="#linearGradient1085"
     id="linearGradient110"
     gradientUnits="userSpaceOnUse"
     x1="625.41242"
     y1="393.79986"
     x2="655.26356"
     y2="393.79986"
     gradientTransform="matrix(1.9120037,0,0,1.8940652,-465.83674,-460.82625)" /><linearGradient
     inkscape:collect="always"
     xlink:href="#linearGradient1085"
     id="linearGradient111"
     gradientUnits="userSpaceOnUse"
     x1="625.41242"
     y1="393.79986"
     x2="655.26356"
     y2="393.79986"
     gradientTransform="matrix(1.9120037,0,0,1.8940652,-465.83674,-460.82625)" /><linearGradient
     inkscape:collect="always"
     xlink:href="#linearGradient1085"
     id="linearGradient112"
     gradientUnits="userSpaceOnUse"
     x1="625.41242"
     y1="393.79986"
     x2="655.26356"
     y2="393.79986"
     gradientTransform="matrix(1.9120037,0,0,1.8940652,-465.83674,-460.82625)" /><linearGradient
     inkscape:collect="always"
     xlink:href="#linearGradient1085"
     id="linearGradient113"
     gradientUnits="userSpaceOnUse"
     x1="625.41242"
     y1="393.79986"
     x2="655.26356"
     y2="393.79986"
     gradientTransform="matrix(1.9120037,0,0,1.8940652,-465.83674,-460.82625)" /><linearGradient
     inkscape:collect="always"
     xlink:href="#linearGradient1085"
     id="linearGradient114"
     gradientUnits="userSpaceOnUse"
     x1="625.41242"
     y1="393.79986"
     x2="655.26356"
     y2="393.79986"
     gradientTransform="matrix(1.9120037,0,0,1.8940652,-465.83674,-460.82625)" /><linearGradient
     inkscape:collect="always"
     xlink:href="#linearGradient1085"
     id="linearGradient116"
     gradientUnits="userSpaceOnUse"
     x1="625.41242"
     y1="393.79986"
     x2="655.26356"
     y2="393.79986"
     gradientTransform="matrix(1.9120037,0,0,1.8940652,-465.83674,-460.82625)" /><linearGradient
     inkscape:collect="always"
     xlink:href="#linearGradient1085"
     id="linearGradient93"
     gradientUnits="userSpaceOnUse"
     gradientTransform="matrix(1.9120037,0,0,1.8940652,-465.83674,-460.82625)"
     x1="625.41242"
     y1="393.79986"
     x2="655.26356"
     y2="393.79986" /><linearGradient
     inkscape:collect="always"
     xlink:href="#linearGradient1085"
     id="linearGradient118"
     gradientUnits="userSpaceOnUse"
     gradientTransform="matrix(1.9120037,0,0,1.8940652,-465.83674,-460.82625)"
     x1="625.41242"
     y1="393.79986"
     x2="655.26356"
     y2="393.79986" /></defs><sodipodi:namedview
   id="namedview40"
   pagecolor="#ffffff"
   bordercolor="#000000"
   borderopacity="0.25"
   inkscape:showpageshadow="2"
   inkscape:pageopacity="0.0"
   inkscape:pagecheckerboard="0"
   inkscape:deskcolor="#d1d1d1"
   inkscape:zoom="0.56002305"
   inkscape:cx="349.98559"
   inkscape:cy="672.29376"
   inkscape:window-width="1920"
   inkscape:window-height="1046"
   inkscape:window-x="-11"
   inkscape:window-y="-11"
   inkscape:window-maximized="1"
   inkscape:current-layer="Layer_1" />
<path
   fill="#000000"
   opacity="1"
   stroke="none"
   d="m 1002.7842,463.29862 c 22.7309,24.50278 27.2361,45.52825 15.0939,69.07557 -6.2188,12.06067 -15.7805,21.2991 -26.2184,29.7202 -27.24022,21.97723 -58.95808,36.0032 -90.70066,49.971 -8.98363,3.95322 -17.99681,7.84077 -27.99119,12.19141 4.26803,9.23589 10.52652,16.33274 15.79493,23.995 22.35189,32.50836 41.91155,66.31148 49.79482,105.49033 8.66447,43.06063 -15.60856,78.71111 -59.53446,87.14909 -34.12255,6.55488 -68.43931,4.85839 -102.68055,1.04217 -37.76442,-4.20881 -74.30897,-13.79682 -110.16148,-26.00409 -7.42511,-2.52815 -7.89425,1.93488 -9.01923,6.81836 -9.94933,43.19034 -23.10405,85.28033 -45.20947,124.08553 -11.61885,20.39659 -25.10638,39.48844 -43.43754,54.74901 -40.10549,33.3874 -87.49487,29.4918 -122.89764,-9.33351 -34.90241,-38.27655 -53.70268,-84.52231 -68.63805,-132.76596 -4.64166,-14.9931 -8.18598,-30.3195 -12.45537,-46.32839 -13.68877,4.32718 -26.64234,8.46999 -39.62625,12.51708 -31.36431,9.77609 -63.49517,15.79378 -96.19202,18.86619 -4.22167,0.39674 -8.00936,1.47072 -11.84605,3.15301 -15.08428,6.6142 -30.35411,7.07129 -45.13648,-0.53582 -8.84267,-4.55078 -18.58795,-3.79253 -27.77027,-6.1563 -28.98376,-7.46158 -50.669315,-23.33086 -56.884435,-53.48375 -4.182795,-20.2929 -1.298691,-40.93731 6.884455,-60.29335 13.57978,-32.12131 29.99158,-62.69824 51.72807,-90.26763 2.71561,-3.44421 5.79073,-6.74585 7.35603,-12.22979 -8.50819,-6.25075 -19.40682,-8.18249 -28.65293,-13.29764 -8.21312,-4.54372 -15.33267,-4.86014 -24.654718,-0.31387 -29.587339,14.42974 -67.002517,-9.24571 -66.929173,-41.7722 0.01722,-7.74078 -2.376467,-12.966 -8.128827,-17.86588 C 5.7660865,535.37054 -3.1874442,515.69453 4.2947996,490.82458 8.9639318,475.30502 19.8861,464.16911 32.010381,454.29219 54.570419,435.91397 80.334857,422.67973 106.77401,410.8239 c 7.95843,-3.56865 11.44436,-7.41278 8.81594,-16.47427 -2.4574,-8.47196 -0.0614,-17.15243 4.19352,-24.64193 3.66706,-6.45494 2.58296,-11.13706 -1.07999,-17.20595 C 104.94531,329.7073 93.12775,306.00294 87.4743,279.7211 c -9.203907,-42.78739 11.742818,-76.59843 54.47456,-87.85738 27.51805,-7.25066 55.43682,-6.49525 83.43098,-4.34697 44.00577,3.37711 86.55622,13.54579 128.21197,27.57307 7.83378,2.638 10.56928,0.62958 12.29216,-7.22093 10.60122,-48.30318 25.82058,-94.95991 51.92002,-137.558006 9.97212,-16.27591 21.63704,-31.196412 35.86966,-44.040488 36.72443,-33.1415668 83.38326,-32.3822754 119.06632,1.947194 31.11652,29.936197 50.55981,66.878398 65.27888,106.70065 8.76517,23.71366 15.83436,47.90289 21.01755,72.59655 1.72437,8.21503 4.92088,9.93084 13.03674,7.31573 36.01088,-11.60316 72.60912,-21.25197 110.27771,-25.60445 37.36541,-4.3173 75.02468,-7.1592 111.40235,5.90549 30.41442,10.92308 46.06558,33.38459 47.90884,65.24746 0.26072,4.50824 1.19558,8.5749 3.01435,12.71984 13.29242,30.29465 0.8456,60.57907 -30.16809,72.89365 -5.08565,2.01945 -8.44063,4.93354 -11.37433,9.32577 -8.23712,12.33194 -16.87383,24.40182 -26.44411,38.14153 14.15063,6.18352 27.35889,11.9752 40.58353,17.72982 23.06936,10.03845 45.65199,20.99921 66.03693,35.83492 6.64684,4.83736 12.66084,10.52823 19.47388,16.27407 m -380.06884,-58.1743 c -15.90615,-13.59193 -31.85802,-27.13199 -47.68573,-40.81292 -3.85273,-3.33011 -8.07537,-4.47697 -13.10921,-4.4584 -33.43147,0.1233 -66.86364,0.10037 -100.29546,0.028 -4.63045,-0.009 -8.66009,0.82629 -12.29556,4.00505 -24.09581,21.06923 -48.2333,42.09318 -72.53113,62.93289 -3.4831,2.9874 -4.96914,6.22679 -5.07944,10.58383 -0.37518,14.81031 -1.03495,29.61448 -1.31048,44.42608 -0.64551,34.69193 0.65014,69.35401 1.60982,104.02568 0.19477,7.03707 2.60881,11.72009 7.86852,16.09377 23.64347,19.66109 47.17225,39.4623 70.47183,59.5212 4.94245,4.25494 9.96221,6.03283 16.39434,5.92138 29.25637,-0.50633 58.54846,-1.60008 87.76287,-0.60866 12.13243,0.41179 20.51413,-3.57796 28.81216,-11.0244 20.52021,-18.41396 41.15591,-36.70907 62.08936,-54.65842 5.78222,-4.95793 8.57122,-10.16708 8.54287,-17.83373 -0.13785,-37.21461 -1.77957,-74.56812 0.90476,-111.60261 2.10887,-29.09485 -5.92027,-50.6487 -32.14952,-66.53882 M 411.96183,151.94852 c -7.98074,21.97087 -13.90356,44.48568 -18.85111,67.3088 -1.536,7.08569 0.43885,10.09563 7.14645,12.4217 37.38835,12.9662 72.63875,30.49631 106.66019,50.4629 3.34058,1.96054 5.64107,2.08708 8.60174,0.27634 35.08101,-21.45509 72.29543,-38.49717 110.96518,-52.50215 5.50914,-1.99516 6.96753,-5.24123 5.65094,-10.98284 C 623.22639,180.08564 611.842,142.05595 593.43838,106.47767 580.59083,81.640595 565.69146,58.177392 542.09961,41.574946 523.50439,28.488751 504.56792,27.700552 485.09111,39.73353 474.95529,45.995614 466.40685,53.931974 459.05932,63.147676 438.10494,89.430033 423.46,119.04446 411.96183,151.94852 m 24.92255,778.23521 c 10.98779,18.59059 23.13282,36.25175 40.01216,50.26797 22.04015,18.30193 46.21596,19.0795 68.72715,1.65881 13.14818,-10.17493 24.30536,-22.34774 33.11043,-36.37278 25.3616,-40.39708 40.01368,-84.86495 50.77745,-130.90238 2.15579,-9.22065 -0.43868,-12.80309 -8.67146,-16.14928 -30.65238,-12.45871 -61.13779,-25.66677 -88.78597,-43.78998 -14.50423,-9.50743 -26.31545,-11.52461 -39.32814,0.69582 -2.00939,1.88702 -4.98774,2.74089 -7.46531,4.16271 -26.77895,15.36882 -54.61062,28.52762 -83.6004,39.2867 -4.81443,1.78666 -8.93672,3.24225 -7.28309,10.66637 9.22485,41.41579 21.76527,81.61729 42.50718,120.47604 m 472.71368,-154.458 c 1.21893,-11.48879 -0.71898,-22.67398 -4.1538,-33.51989 -11.92156,-37.64523 -34.04836,-69.59626 -57.67451,-100.71561 -3.79786,-5.00256 -7.60248,-5.30071 -13.13814,-3.27036 -13.12308,4.81332 -26.38422,9.29207 -39.72763,13.47362 -34.90399,10.93814 -70.4546,19.38272 -106.34121,26.47771 -5.45499,1.07835 -10.18891,2.10436 -10.5873,9.58905 -1.55761,29.26796 -4.86603,58.37279 -11.27714,87.02136 -1.73357,7.74687 0.56786,11.22622 8.16707,13.61948 33.36882,10.50914 66.96471,20.03589 101.76298,24.57232 30.64434,3.99529 61.29754,6.41651 92.0789,0.36208 21.84927,-4.29749 36.62716,-16.9592 40.89078,-37.60976 M 125.21999,235.61853 c -8.13665,10.67339 -10.373,22.52658 -8.17476,35.66823 3.9784,23.78327 14.97541,44.65459 26.54446,65.36908 2.48437,4.44822 5.37611,5.81988 10.71148,4.94331 21.41745,-3.51888 39.11713,3.20731 50.96249,21.47702 4.43691,6.8432 8.54647,7.20798 15.66707,5.25665 36.71966,-10.06298 73.88784,-18.27218 111.45829,-24.58898 13.73325,-2.30903 14.47792,-2.9367 15.5924,-16.41429 1.91848,-23.19964 4.48702,-46.33152 9.14147,-69.16644 1.59469,-7.82354 -0.33848,-12.01242 -8.69166,-14.47993 -27.40017,-8.09377 -54.78192,-16.15342 -82.87842,-21.59459 -35.42575,-6.86068 -71.00122,-10.62036 -106.90702,-4.09893 -12.39832,2.25192 -23.70603,7.17412 -33.4258,17.62887 M 348.12932,699.2451 c -0.37081,-19.02041 -0.38509,-18.95522 -19.30884,-23.02576 -12.11295,-2.6055 -24.19974,-5.34012 -36.25742,-8.18667 -34.06502,-8.04192 -67.29963,-18.79684 -100.27747,-30.36793 -5.29185,-1.85684 -9.82022,-3.2375 -14.19266,2.59983 -18.63871,24.88319 -35.93117,50.57389 -48.83969,78.87724 -7.8857,17.29028 -14.1811,35.0936 -13.19982,54.59795 0.84495,16.79331 15.65126,34.22692 30.99262,35.69672 0.17151,-2.49312 0.26696,-4.98404 0.52462,-7.45856 2.37029,-22.75873 17.31527,-41.03962 37.08201,-45.40162 22.67885,-5.00439 42.53985,3.32896 53.77137,22.54912 4.96171,8.49071 6.37225,17.73954 5.70829,27.3436 -0.39812,5.75852 2.55023,7.36357 7.57524,6.51214 34.52927,-5.85143 68.26289,-14.74676 101.37501,-26.03541 4.70783,-1.60508 6.10538,-3.9929 5.22393,-9.20653 -4.30334,-25.45276 -7.72078,-51.03873 -10.17719,-78.49412 m 506.975,-433.65118 c 12.31739,-16.08382 29.88603,-21.3366 50.95052,-22.5979 -10.03757,-14.66975 -22.96285,-21.78418 -38.24346,-24.93984 -27.77319,-5.73542 -55.69342,-3.90912 -83.49448,-0.20664 -37.59754,5.00712 -74.2295,14.18318 -110.15995,26.19086 -5.23282,1.74881 -7.40426,4.00801 -6.17469,10.29551 4.89202,25.01682 8.126,50.3478 9.6242,75.74724 0.57005,9.66552 4.42406,12.08939 12.64274,13.41359 17.21972,2.77457 34.44258,5.73398 51.45034,9.55205 32.5463,7.30644 64.81604,15.67073 96.06336,27.53469 3.20025,1.21506 7.49734,4.41102 10.56352,0.49491 8.87418,-11.33382 18.59103,-22.13302 25.56078,-34.62611 -31.46253,-28.18961 -36.71525,-50.28145 -18.78288,-80.85836 m 4.59947,332.90609 c 36.47953,-15.04709 72.37081,-31.24955 105.20337,-53.33567 8.45256,-5.68591 16.30806,-12.0979 22.16062,-20.59542 7.42281,-10.77667 7.64466,-21.66765 0.73966,-32.75083 -4.94526,-7.9373 -11.82689,-13.98353 -19.31982,-19.41591 -31.68273,-22.97005 -68.16718,-36.51006 -103.73531,-51.86199 -4.28064,-1.84761 -6.80905,-0.63514 -9.65465,2.84739 -23.43885,28.68553 -47.63051,56.73202 -73.84494,82.99334 -4.21275,4.22031 -4.43668,7.65595 -0.1126,11.9946 24.62591,24.70919 47.54054,50.93248 69.47677,77.99654 2.23174,2.75325 4.24843,4.69437 9.08691,2.12795 M 61.632079,524.12822 c 13.159556,-6.06658 26.468021,-6.10773 39.776711,-0.66297 19.88664,8.1359 28.91498,24.37303 28.05239,49.80394 -0.1074,3.16769 -2.20965,6.90054 2.54183,8.996 13.2654,5.85027 25.96599,12.99395 40.08149,17.82183 23.77878,-31.06548 50.32744,-59.02768 76.41186,-87.42064 -22.8232,-25.32873 -44.87122,-49.76782 -66.87146,-74.24917 -2.77763,-3.09086 -6.04878,-3.09329 -9.59276,-2.01636 -7.65546,2.32631 -16.32922,2.54509 -22.36183,-1.30969 -13.52528,-8.64266 -24.1339,-2.20916 -35.43841,3.5756 -2.82687,1.44648 -5.84552,2.54438 -8.60068,4.10608 -22.05387,12.50091 -45.531975,22.99318 -63.202618,41.87817 -14.479659,15.47466 -11.416056,35.66263 6.836677,47.38771 3.669611,-2.38158 7.383048,-4.7917 12.3668,-7.9105 m 642.303291,-80.1843 c 16.05164,13.01922 29.96375,28.25313 44.69075,42.63352 4.97489,4.85783 8.36257,5.16157 13.10535,-0.23727 19.84404,-22.58868 40.02031,-44.89053 59.96038,-67.39714 2.42362,-2.73553 5.42899,-5.44566 5.07247,-9.65539 -1.55887,-2.45608 -4.09535,-3.02139 -6.47496,-3.85097 -42.67137,-14.87645 -86.5275,-25.19584 -130.90991,-33.53022 -7.57638,-1.4227 -9.93766,1.41815 -8.79284,8.66038 0.78433,4.96124 1.77556,10.18795 1.01352,15.03993 -3.22696,20.54716 4.28476,36.01424 22.33524,48.33716 M 218.7013,436.01467 c 16.59068,18.56898 33.18139,37.13789 50.09482,56.0681 3.16733,-2.69123 5.15636,-4.19488 6.92909,-5.91699 13.87141,-13.47564 26.30715,-28.90478 41.87357,-40.04608 22.91947,-16.40417 30.41513,-37.14883 26.61325,-63.5411 -0.13365,-0.92791 -0.0827,-1.89581 -0.009,-2.83682 0.53791,-6.96023 -2.42147,-8.38869 -9.25649,-7.37396 -37.50322,5.56809 -74.09206,15.07164 -110.71975,24.44821 -18.90462,4.83957 -23.37608,18.67414 -10.77505,33.16158 1.45537,1.67326 2.91949,3.33897 5.25049,6.03706 m 599.1565,177.30399 c 7.1489,-1.69939 5.56984,-4.94648 1.99172,-9.20049 -15.70378,-18.66993 -32.31911,-36.52309 -49.18952,-54.14364 -4.96708,-5.188 -9.52978,-10.90973 -16.44772,-15.09819 -17.62535,17.54865 -34.28875,35.9411 -53.93838,50.89434 -14.08619,10.71929 -21.7907,22.85294 -19.1638,40.83266 0.75668,5.17911 -0.69715,10.65506 -0.92168,16.00375 -0.10209,2.42871 -0.50076,5.15987 3.2097,7.26746 44.87875,-8.30226 89.60837,-20.03125 134.45968,-36.55589 M 254.36281,548.99871 c -17.67961,19.57762 -36.47161,38.23018 -52.80438,60.45575 47.10298,17.60011 93.97122,30.19453 142.75701,40.36229 0,-13.22133 -0.22114,-24.84156 0.093,-36.44758 0.15794,-5.83477 -1.76117,-10.01066 -6.11248,-14.04237 -18.59572,-17.22994 -36.88526,-34.78471 -55.24289,-52.26597 -15.94617,-15.18489 -11.74469,-17.23121 -28.69021,1.93788 m 290.37361,180.05606 c 29.62378,16.88302 60.25717,31.67265 92.91691,45.48821 5.56118,-26.13022 9.38765,-50.7733 10.80555,-75.82619 0.43307,-7.65291 -2.29115,-10.07689 -9.82738,-9.37612 -17.36079,1.61421 -34.76791,2.74656 -52.16089,4.01092 -2.97447,0.21628 -5.61117,1.24089 -7.90818,2.95438 -11.41598,8.5159 -22.76488,17.12 -34.14249,25.68653 -2.50029,1.88249 -4.78703,3.7643 0.31648,7.06227 M 387.1098,770.33451 c 2.99504,5.45251 6.66382,1.69627 9.75315,0.41226 26.44136,-10.98834 52.27212,-23.24681 77.27369,-37.17787 3.52003,-1.96134 7.6727,-3.12131 10.39379,-7.71082 -13.60849,-10.2339 -27.1724,-20.49993 -40.84632,-30.62029 -1.43768,-1.06414 -3.49725,-1.69559 -5.31304,-1.80574 -18.0974,-1.09849 -36.10617,-2.96435 -54.05436,-5.50775 -5.329,-0.75514 -8.37519,0.77998 -7.72354,7.26828 2.48352,24.7284 5.22459,49.4094 10.51663,75.14193 M 582.80939,331.88269 c 21.74484,1.36222 43.48969,2.72452 66.1023,4.14113 -0.42046,-23.49558 -3.89543,-45.13238 -7.88609,-66.7048 -2.40411,-12.99535 -2.61196,-13.275 -15.14186,-8.31151 -25.70936,10.18442 -50.85085,21.64739 -75.44023,34.26368 -3.21602,1.65002 -7.17516,2.68537 -9.02669,7.44765 13.2798,9.53918 26.60674,19.11217 41.39257,29.16385 M 410.47817,266.90207 c -7.63525,-2.90973 -15.27048,-5.81948 -24.2006,-9.22272 -5.41493,24.91911 -8.43819,49.03541 -10.02858,73.3422 -0.32337,4.94262 3.82383,5.11492 7.45288,4.88887 9.80935,-0.61108 19.62419,-2.08673 29.41115,-1.89985 20.18467,0.38524 37.8182,-5.31775 52.69685,-18.98372 0.6915,-0.63512 1.58459,-1.04917 2.34093,-1.62174 4.65099,-3.52127 10.49069,-5.71556 14.11025,-12.25929 -23.01507,-12.94765 -46.62235,-23.51444 -71.78288,-34.24375 m -83.94285,209.73864 c -11.87978,12.11617 -23.75954,24.23228 -35.59596,36.30417 10.11807,13.38758 41.8852,43.19114 50.8373,47.75614 3.16136,-22.56823 0.97021,-88.70669 -3.17771,-93.75815 -4.55005,1.85477 -7.30648,5.95283 -12.06363,9.69784 M 691.152,471.77763 c -2.41582,-1.30807 -4.46856,-3.68351 -8.4529,-2.42528 0,30.46188 0,61.07553 0,94.19867 18.63422,-17.39375 35.77877,-33.27598 51.72853,-50.6718 C 720.89855,497.55018 706.11566,485.52203 691.152,471.77763 M 640.95991,364.23187 c -6.53703,0 -13.07408,0 -21.72524,0 11.56597,9.34603 20.41367,18.83411 33.13927,27.22681 0,-6.78273 -0.42513,-11.18078 0.0934,-15.46677 0.92683,-7.66105 -2.42711,-11.14752 -11.5074,-11.76004 m 10.63586,272.88596 c -12.6384,4.32269 -20.36798,14.45565 -30.83851,23.47767 5.60135,1.58597 8.87314,-0.14358 12.2539,-0.37156 22.61555,-1.52609 18.76213,-2.82168 18.58461,-23.10611 M 400.57748,367.28538 c 0.22897,-0.83248 0.81918,-2.30047 0.6338,-2.40394 -4.08755,-2.2799 -23.5923,-0.93264 -25.52628,2.46677 -3.88442,6.82731 -4.25727,14.35508 -2.12064,23.42917 9.53125,-8.21769 17.88041,-15.41628 27.01312,-23.492 m -14.29619,277.7806 c -4.08039,-2.97277 -7.15793,-7.40955 -12.87597,-9.51714 0.27178,6.08496 0.53798,11.0881 0.70292,16.09459 0.0991,3.00815 0.59618,6.06831 4.03514,6.624 8.42472,1.36196 16.91833,2.30529 25.38422,3.41705 0.20115,-0.73675 0.40234,-1.47336 0.60353,-2.21013 -5.6265,-4.49193 -11.25299,-8.98396 -17.84984,-14.40837 m 143.16775,50.08141 c -11.5083,-0.51908 -23.00758,-0.78739 -35.14281,0.53594 16.8681,16.00533 24.82786,15.81077 35.14281,-0.53594 m -7.55336,-370.61674 c -12.07292,-8.10925 -12.07292,-8.10925 -28.97094,6.30109 10.95208,0 22.016,0 33.01292,0 0.12326,-3.38114 -1.68921,-4.30276 -4.04198,-6.30109 m 391.53583,-55.58227 c -4.6046,-0.14471 -9.08364,1.21766 -8.90428,6.24786 0.18586,5.21445 3.81687,9.40186 9.02262,11.13774 3.59761,1.19975 7.09146,0.0681 8.96367,-3.5471 2.51069,-4.84806 0.10998,-8.51885 -3.51698,-11.58375 -1.15577,-0.97659 -2.76494,-1.42668 -5.56503,-2.25475 M 99.986876,545.80188 c -4.494455,-0.97662 -8.518476,-0.18221 -9.958846,4.55494 -1.171658,3.85321 1.714551,6.53779 4.770505,8.2706 3.101461,1.75879 6.144505,0.85477 8.399505,-1.91154 3.3893,-4.1576 1.69656,-7.46168 -3.211164,-10.914 M 186.09999,376.90171 c 2.41777,-4.81452 1.51077,-8.72831 -3.67505,-10.77284 -2.67528,-1.05467 -6.03644,-1.14252 -7.80563,1.66164 -2.18658,3.46595 -2.14718,7.2631 0.97071,10.39598 3.23615,3.25167 6.57223,3.62478 10.50997,-1.28478 m 25.23473,400.78144 c -4.72214,-0.21734 -7.17452,2.25151 -7.01044,6.69466 0.12379,3.35137 2.47304,5.76138 5.60386,6.86206 3.2859,1.15512 5.53979,-1.03304 6.88556,-3.51773 2.57707,-4.75784 -0.28301,-7.53396 -5.47898,-10.03899 z"
   id="path1"
   style="opacity:0.985465;mix-blend-mode:darken;fill:url(#linearGradient1125);fill-opacity:1;stroke-width:1.90301"
   clip-path="none" /><path
   fill="#000000"
   opacity="1"
   stroke="none"
   d="m 777.16414,264.26279 c 10.91794,12.89127 12.51533,22.60065 6.07024,34.03453 -6.13827,10.8896 -18.28855,16.33516 -31.65776,14.18844 -14.79235,-2.37527 -24.00741,-17.16826 -21.08163,-33.84243 2.29524,-13.07963 17.01268,-23.34327 30.44278,-21.19159 5.71023,0.91495 11.07526,2.71954 16.22637,6.81105 z"
   id="path116"
   style="mix-blend-mode:darken;fill:url(#linearGradient116);fill-opacity:1;stroke-width:1.90301" />
<path
   fill="#000000"
   opacity="1"
   stroke="none"
   d="m 298.5123,147.81352 c -7.78614,0.10523 -7.74407,-5.06602 -7.79192,-9.83021 -0.13308,-13.24267 -0.0564,-26.48731 -0.0645,-39.731192 -0.009,-14.091568 -1.57341,-15.209288 -16.54781,-11.666932 -1.87601,4.442795 -0.78102,9.251369 -1.27784,13.895434 -0.34556,3.22971 -1.82308,5.36931 -5.23754,5.68137 -3.44755,0.31516 -5.35983,-1.67046 -6.18495,-4.69803 -0.57488,-2.109612 -1.09098,-4.32593 -1.06408,-6.487569 0.0682,-5.477332 -0.31849,-9.955288 -7.75159,-10.259837 -3.25445,-0.133341 -5.51211,-3.302603 -5.24184,-6.879468 0.2516,-3.33009 2.82511,-4.960351 5.94641,-5.027512 6.2219,-0.133912 7.04189,-3.983566 7.03098,-8.917168 -0.0329,-14.819924 0.027,-29.640719 0.17896,-44.459868 0.0485,-4.721316 -0.17627,-10.6688257 6.44409,-10.5855322 6.70987,0.084456 7.33831,5.8032272 7.19628,11.1584352 -0.38429,14.488899 -0.68025,28.981259 -1.23783,43.46374 -0.23673,6.147207 1.57883,9.387501 8.56149,9.296922 6.25428,-0.08109 9.81448,-1.732048 9.25788,-8.581858 -0.17668,-2.174855 -0.0614,-4.455049 0.40937,-6.58072 0.74928,-3.383238 2.74677,-5.763814 6.65584,-5.358443 3.28876,0.341136 5.12112,2.397699 5.43882,5.599479 0.21725,2.18909 0.35536,4.432322 0.12641,6.609739 -0.64879,6.167157 1.97505,8.664274 8.21646,8.242902 4.66903,-0.315194 9.69475,0.394147 9.46257,6.479916 -0.20085,5.264292 -4.88241,6.25115 -9.2011,5.984507 -6.9326,-0.42819 -8.66242,2.897223 -8.52729,9.140909 0.30709,14.183236 0.12563,28.377566 0.0767,42.567166 -0.0134,4.06241 0.42753,8.38254 -4.87365,10.94382 z"
   id="path2"
   style="mix-blend-mode:darken;fill:url(#linearGradient1124);fill-opacity:1;stroke-width:1.90301"
   clip-path="none" /><path
   fill="#000000"
   opacity="1"
   stroke="none"
   d="m 777.16414,264.26279 c 10.91794,12.89127 12.51533,22.60065 6.07024,34.03453 -6.13827,10.8896 -18.28855,16.33516 -31.65776,14.18844 -14.79235,-2.37527 -24.00741,-17.16826 -21.08163,-33.84243 2.29524,-13.07963 17.01268,-23.34327 30.44278,-21.19159 5.71023,0.91495 11.07526,2.71954 16.22637,6.81105 z"
   id="path115"
   style="mix-blend-mode:darken;fill:url(#linearGradient118);fill-opacity:1;stroke-width:1.90301" />
<path
   fill="#000000"
   opacity="1"
   stroke="none"
   d="m 986.49308,632.91942 c 12.62744,-2.74411 23.37092,-9.81102 39.03202,-9.91297 -18.5506,29.36932 -38.05794,55.2466 -58.06594,83.20059 -15.1099,-17.90484 -26.03847,-36.39243 -39.67245,-54.87448 20.25936,-7.85522 39.25862,-12.60311 58.70637,-18.41314 m -8.54825,13.86144 c -8.43211,3.45241 -18.77109,2.55255 -26.34116,10.85471 7.34425,6.21639 15.68698,8.25751 23.48425,11.26381 1.2299,0.4742 3.47519,0.12617 4.42861,-0.73515 8.31764,-7.51371 14.0456,-16.88682 20.51387,-25.72755 -0.56769,-0.5348 -1.13547,-1.06958 -1.7032,-1.60438 -6.30981,1.81432 -12.61975,3.62848 -20.38237,5.94856 m -8.26244,38.14395 c 3.79099,-9.94938 -4.70461,-7.18423 -9.39253,-9.67378 2.71441,10.114 2.71441,10.114 9.39253,9.67378 z"
   id="path3"
   style="mix-blend-mode:darken;fill:url(#linearGradient1123);fill-opacity:1;stroke-width:1.90301"
   clip-path="none" /><path
   fill="#000000"
   opacity="1"
   stroke="none"
   d="m 777.16414,264.26279 c 10.91794,12.89127 12.51533,22.60065 6.07024,34.03453 -6.13827,10.8896 -18.28855,16.33516 -31.65776,14.18844 -14.79235,-2.37527 -24.00741,-17.16826 -21.08163,-33.84243 2.29524,-13.07963 17.01268,-23.34327 30.44278,-21.19159 5.71023,0.91495 11.07526,2.71954 16.22637,6.81105 z"
   id="path114"
   style="mix-blend-mode:darken;fill:url(#linearGradient114);fill-opacity:1;stroke-width:1.90301" />
<path
   fill="#000000"
   opacity="1"
   stroke="none"
   d="m 720.27141,18.388609 c -0.005,39.105136 -0.0118,77.267205 -0.022,115.429251 -5.6e-4,2.52294 0.0212,5.04747 -0.0566,7.56855 -0.11432,3.70827 -0.95121,7.35444 -5.48499,7.41109 -4.18414,0.0521 -5.94676,-3.26878 -6.58301,-6.91104 -0.43038,-2.46451 -0.45897,-5.01837 -0.46176,-7.53249 -0.0499,-43.208002 -0.0707,-86.41597 -0.0852,-129.6239998 -7e-4,-2.2055597 -0.0826,-4.43735358 0.21543,-6.6108893 0.51256,-3.7377319 2.10562,-6.7079793 6.57579,-6.6225058 4.63377,0.088663 5.78245,3.1539607 5.81162,7.0263419 0.0477,6.3073877 0.0616,12.615057 0.0905,19.865692 z"
   id="path4"
   style="mix-blend-mode:darken;fill:url(#linearGradient1122);fill-opacity:1;stroke-width:1.90301"
   clip-path="none" /><path
   fill="#000000"
   opacity="1"
   stroke="none"
   d="m 777.16414,264.26279 c 10.91794,12.89127 12.51533,22.60065 6.07024,34.03453 -6.13827,10.8896 -18.28855,16.33516 -31.65776,14.18844 -14.79235,-2.37527 -24.00741,-17.16826 -21.08163,-33.84243 2.29524,-13.07963 17.01268,-23.34327 30.44278,-21.19159 5.71023,0.91495 11.07526,2.71954 16.22637,6.81105 z"
   id="path113"
   style="mix-blend-mode:darken;fill:url(#linearGradient113);fill-opacity:1;stroke-width:1.90301" />
<path
   fill="#000000"
   opacity="1"
   stroke="none"
   d="m 743.19468,14.645556 c -0.004,40.347798 -10e-4,79.757157 -0.02,119.166514 -10e-4,2.834 9.5e-4,5.68175 -0.26583,8.49827 -0.30901,3.2626 -2.19371,5.08244 -5.63448,5.18441 -3.04036,0.0902 -4.97256,-1.53037 -5.5074,-4.21444 -0.67172,-3.37062 -1.02986,-6.85737 -1.03687,-10.29492 -0.0865,-43.192368 -0.0922,-86.384942 -0.0869,-129.577401 2.6e-4,-2.1952533 0.0249,-4.4480899 0.50229,-6.5716277 0.65387,-2.9069116 2.10983,-5.4199755 5.73542,-5.1440736 3.63648,0.2767623 5.99451,2.1785026 6.12534,5.94042 0.18603,5.3539459 0.13747,10.7158979 0.18871,17.0128483 z"
   id="path5"
   style="mix-blend-mode:darken;fill:url(#linearGradient1121);fill-opacity:1;stroke-width:1.90301"
   clip-path="none" /><path
   fill="#000000"
   opacity="1"
   stroke="none"
   d="m 777.16414,264.26279 c 10.91794,12.89127 12.51533,22.60065 6.07024,34.03453 -6.13827,10.8896 -18.28855,16.33516 -31.65776,14.18844 -14.79235,-2.37527 -24.00741,-17.16826 -21.08163,-33.84243 2.29524,-13.07963 17.01268,-23.34327 30.44278,-21.19159 5.71023,0.91495 11.07526,2.71954 16.22637,6.81105 z"
   id="path112"
   style="mix-blend-mode:darken;fill:url(#linearGradient112);fill-opacity:1;stroke-width:1.90301" />
<path
   fill="#000000"
   opacity="1"
   stroke="none"
   d="m 259.08712,945.23221 c -5.64994,-0.17276 -11.66287,0.2609 -11.64046,-6.24231 0.0224,-6.47861 6.07934,-6.19699 10.81921,-6.21653 18.49301,-0.0764 17.41585,1.3676 17.26988,-17.63339 -0.0338,-4.40649 -0.16941,-8.82931 0.14281,-13.2166 0.30018,-4.219 1.27617,-8.77567 6.83337,-8.36643 4.74522,0.34925 5.66095,4.29901 5.62899,8.42619 -0.0489,6.29639 0.62567,12.66831 -0.13155,18.87349 -1.2181,9.98037 3.06097,13.05302 12.44187,11.8401 3.73969,-0.48347 7.63199,-0.19527 11.41627,0.15304 3.91569,0.36045 6.71951,2.4988 6.40903,6.71662 -0.27857,3.78535 -3.27913,5.27111 -6.69896,5.42624 -5.39243,0.24488 -10.80583,0.33029 -16.19999,0.15967 -5.32632,-0.16837 -7.45224,2.15996 -7.301,7.35304 0.19245,6.60519 0.0922,13.22274 -0.0451,19.83162 -0.078,3.75865 -1.34991,7.05938 -5.80214,7.22898 -4.56175,0.17407 -5.87184,-3.37771 -6.28617,-6.91061 -0.47445,-4.04545 -0.37543,-8.16723 -0.37174,-12.25559 0.0135,-15.26315 0.0372,-15.26315 -16.48451,-15.16766 z"
   id="path6"
   style="mix-blend-mode:darken;fill:url(#linearGradient1120);fill-opacity:1;stroke-width:1.90301"
   clip-path="none" /><path
   fill="#000000"
   opacity="1"
   stroke="none"
   d="m 777.16414,264.26279 c 10.91794,12.89127 12.51533,22.60065 6.07024,34.03453 -6.13827,10.8896 -18.28855,16.33516 -31.65776,14.18844 -14.79235,-2.37527 -24.00741,-17.16826 -21.08163,-33.84243 2.29524,-13.07963 17.01268,-23.34327 30.44278,-21.19159 5.71023,0.91495 11.07526,2.71954 16.22637,6.81105 z"
   id="path111"
   style="mix-blend-mode:darken;fill:url(#linearGradient111);fill-opacity:1;stroke-width:1.90301" />
<path
   fill="#000000"
   opacity="1"
   stroke="none"
   d="m 43.231682,324.51009 c 7.319266,7.9075 12.294394,16.72368 22.29664,21.69098 5.801075,2.88075 2.215132,9.02472 -2.886954,10.56481 -7.601112,2.29448 -12.293244,6.01925 -15.284251,13.6699 -3.036051,7.76566 -10.309868,7.73336 -14.059422,0.1591 -3.289639,-6.6453 -6.971566,-11.71535 -14.818371,-13.05902 -3.316869,-0.56797 -5.676931,-3.13236 -5.814345,-6.66861 -0.135562,-3.48808 1.882595,-6.10617 5.138527,-7.22834 7.477408,-2.57724 11.984115,-7.66782 14.740612,-14.91732 1.634896,-4.29988 5.18956,-6.26203 10.687564,-4.21146 z"
   id="path7"
   style="mix-blend-mode:darken;fill:url(#linearGradient1119);fill-opacity:1;stroke-width:1.90301"
   clip-path="none" /><path
   fill="#000000"
   opacity="1"
   stroke="none"
   d="m 777.16414,264.26279 c 10.91794,12.89127 12.51533,22.60065 6.07024,34.03453 -6.13827,10.8896 -18.28855,16.33516 -31.65776,14.18844 -14.79235,-2.37527 -24.00741,-17.16826 -21.08163,-33.84243 2.29524,-13.07963 17.01268,-23.34327 30.44278,-21.19159 5.71023,0.91495 11.07526,2.71954 16.22637,6.81105 z"
   id="path110"
   style="mix-blend-mode:darken;fill:url(#linearGradient110);fill-opacity:1;stroke-width:1.90301" />
<path
   fill="#000000"
   opacity="1"
   stroke="none"
   d="m 863.00534,138.27857 c -24.8299,0.001 -48.70404,0.0282 -72.57796,-0.0326 -2.83194,-0.008 -5.76121,-0.13334 -8.46491,-0.86164 -2.4892,-0.67039 -4.55511,-2.50216 -4.60378,-5.40245 -0.052,-3.10173 2.30503,-4.42209 4.87012,-4.96128 2.76854,-0.582 5.64765,-0.90091 8.47853,-0.90068 33.42355,0.002 66.84707,0.081 100.27063,0.16043 2.22511,0.006 4.51124,-0.10986 6.66109,0.33859 3.81978,0.79688 9.51158,0.18903 9.23209,5.89324 -0.25033,5.10515 -5.24741,5.68087 -9.48663,5.72186 -11.14014,0.10773 -22.28212,0.0409 -34.37918,0.0445 z"
   id="path8"
   style="mix-blend-mode:darken;fill:url(#linearGradient1118);fill-opacity:1;stroke-width:1.90301"
   clip-path="none" /><path
   fill="#000000"
   opacity="1"
   stroke="none"
   d="m 777.16414,264.26279 c 10.91794,12.89127 12.51533,22.60065 6.07024,34.03453 -6.13827,10.8896 -18.28855,16.33516 -31.65776,14.18844 -14.79235,-2.37527 -24.00741,-17.16826 -21.08163,-33.84243 2.29524,-13.07963 17.01268,-23.34327 30.44278,-21.19159 5.71023,0.91495 11.07526,2.71954 16.22637,6.81105 z"
   id="path109"
   style="mix-blend-mode:darken;fill:url(#linearGradient109);fill-opacity:1;stroke-width:1.90301" />
<path
   fill="#000000"
   opacity="1"
   stroke="none"
   d="m 784.00461,103.22571 c 37.41113,-0.0747 73.98989,-0.0591 110.56828,0.0452 2.49422,0.007 5.05599,0.43605 7.46072,1.10922 2.51976,0.70536 4.76798,2.23325 4.85187,5.16486 0.10392,3.63218 -2.94397,4.57482 -5.64904,5.38631 -1.7854,0.53564 -3.768,0.57981 -5.66261,0.58246 -35.62719,0.0493 -71.25448,0.06 -106.88164,0.0739 -0.95368,3.6e-4 -1.90874,-0.0322 -2.86078,-0.0892 -3.34823,-0.20079 -6.56995,-1.10928 -7.69481,-4.50909 -1.40248,-4.23888 1.41498,-6.34415 5.86801,-7.7636 z"
   id="path9"
   style="mix-blend-mode:darken;fill:url(#linearGradient1117);fill-opacity:1;stroke-width:1.90301"
   clip-path="none" /><path
   fill="#000000"
   opacity="1"
   stroke="none"
   d="m 777.16414,264.26279 c 10.91794,12.89127 12.51533,22.60065 6.07024,34.03453 -6.13827,10.8896 -18.28855,16.33516 -31.65776,14.18844 -14.79235,-2.37527 -24.00741,-17.16826 -21.08163,-33.84243 2.29524,-13.07963 17.01268,-23.34327 30.44278,-21.19159 5.71023,0.91495 11.07526,2.71954 16.22637,6.81105 z"
   id="path108"
   style="mix-blend-mode:darken;fill:url(#linearGradient108);fill-opacity:1;stroke-width:1.90301" />
<path
   fill="#000000"
   opacity="1"
   stroke="none"
   d="m 689.46346,924.57956 c -6.54823,-7.64885 -1.45594,-10.14327 4.62012,-10.58522 9.16524,-0.66668 18.41461,-0.206 27.62814,-0.21651 20.33532,-0.0233 40.6708,-0.0563 61.00614,-0.045 2.85296,10e-4 5.75319,-0.047 8.54592,0.42485 3.21075,0.54276 6.42662,1.82066 6.37003,5.77119 -0.0489,3.40584 -3.12287,4.55785 -5.77009,5.51253 -1.73381,0.62527 -3.74289,0.68204 -5.62911,0.68434 -29.8676,0.0373 -59.73541,0.0491 -89.60276,-0.0284 -2.16363,-0.005 -4.32524,-0.7453 -7.16839,-1.51778 z"
   id="path10"
   style="mix-blend-mode:darken;fill:url(#linearGradient1116);fill-opacity:1;stroke-width:1.90301"
   clip-path="none" /><path
   fill="#000000"
   opacity="1"
   stroke="none"
   d="m 777.16414,264.26279 c 10.91794,12.89127 12.51533,22.60065 6.07024,34.03453 -6.13827,10.8896 -18.28855,16.33516 -31.65776,14.18844 -14.79235,-2.37527 -24.00741,-17.16826 -21.08163,-33.84243 2.29524,-13.07963 17.01268,-23.34327 30.44278,-21.19159 5.71023,0.91495 11.07526,2.71954 16.22637,6.81105 z"
   id="path107"
   style="mix-blend-mode:darken;fill:url(#linearGradient107);fill-opacity:1;stroke-width:1.90301" />
<path
   fill="#000000"
   opacity="1"
   stroke="none"
   d="m 687.85277,899.77519 c -2.90732,-6.45952 0.1673,-9.07205 5.58886,-9.07701 32.05921,-0.0293 64.11887,0.16744 96.17832,0.29213 3.8988,0.0152 7.27166,1.48667 7.70589,5.49836 0.44837,4.14156 -3.09453,4.97876 -6.45652,5.13287 -33.30122,1.52609 -66.60317,2.44156 -99.89181,-0.25816 -0.89017,-0.0723 -1.73414,-0.70599 -3.12474,-1.58819 z"
   id="path11"
   style="mix-blend-mode:darken;fill:url(#linearGradient1115);fill-opacity:1;stroke-width:1.90301"
   clip-path="none" /><path
   fill="#000000"
   opacity="1"
   stroke="none"
   d="m 777.16414,264.26279 c 10.91794,12.89127 12.51533,22.60065 6.07024,34.03453 -6.13827,10.8896 -18.28855,16.33516 -31.65776,14.18844 -14.79235,-2.37527 -24.00741,-17.16826 -21.08163,-33.84243 2.29524,-13.07963 17.01268,-23.34327 30.44278,-21.19159 5.71023,0.91495 11.07526,2.71954 16.22637,6.81105 z"
   id="path106"
   style="mix-blend-mode:darken;fill:url(#linearGradient106);fill-opacity:1;stroke-width:1.90301" />
<path
   fill="#000000"
   opacity="1"
   stroke="none"
   d="m 21.60541,650.17212 c 11.82953,-0.029 22.922094,0.11911 34.014431,0.28519 3.293618,0.0495 5.715705,1.61962 5.970766,4.88535 0.314735,4.02926 -2.671087,5.55063 -6.140609,5.60301 -10.810697,0.16308 -21.625106,0.12632 -32.43785,0.0852 -2.734642,-0.009 -5.113328,-0.94818 -5.623451,-4.01158 -0.497139,-2.98549 -0.22835,-5.75181 4.216713,-6.84727 z"
   id="path12"
   style="mix-blend-mode:darken;fill:url(#linearGradient1114);fill-opacity:1;stroke-width:1.90301"
   clip-path="none" /><path
   fill="#000000"
   opacity="1"
   stroke="none"
   d="m 777.16414,264.26279 c 10.91794,12.89127 12.51533,22.60065 6.07024,34.03453 -6.13827,10.8896 -18.28855,16.33516 -31.65776,14.18844 -14.79235,-2.37527 -24.00741,-17.16826 -21.08163,-33.84243 2.29524,-13.07963 17.01268,-23.34327 30.44278,-21.19159 5.71023,0.91495 11.07526,2.71954 16.22637,6.81105 z"
   id="path105"
   style="mix-blend-mode:darken;fill:url(#linearGradient105);fill-opacity:1;stroke-width:1.90301" />
<path
   fill="#000000"
   opacity="1"
   stroke="none"
   d="m 29.177805,679.64376 c 1.220834,-6.54899 4.109088,-11.03895 10.58579,-11.06196 6.02,-0.0215 10.421089,2.89555 11.103502,9.39866 0.604192,5.75803 -1.639926,10.11331 -7.656371,11.24322 -7.182383,1.34866 -12.64211,-0.76957 -14.032921,-9.57992 z"
   id="path13"
   style="mix-blend-mode:darken;fill:url(#linearGradient1113);fill-opacity:1;stroke-width:1.90301"
   clip-path="none" /><path
   fill="#000000"
   opacity="1"
   stroke="none"
   d="m 777.16414,264.26279 c 10.91794,12.89127 12.51533,22.60065 6.07024,34.03453 -6.13827,10.8896 -18.28855,16.33516 -31.65776,14.18844 -14.79235,-2.37527 -24.00741,-17.16826 -21.08163,-33.84243 2.29524,-13.07963 17.01268,-23.34327 30.44278,-21.19159 5.71023,0.91495 11.07526,2.71954 16.22637,6.81105 z"
   id="path104"
   style="mix-blend-mode:darken;fill:url(#linearGradient104);fill-opacity:1;stroke-width:1.90301" />
<path
   fill="#000000"
   opacity="1"
   stroke="none"
   d="m 142.95321,132.98076 c -5.43123,4.78145 -9.85169,3.74329 -13.69269,-0.8886 -3.44176,-4.15048 -2.58955,-8.3138 0.96469,-11.85317 3.40226,-3.38794 7.6759,-3.3339 11.37559,-0.8035 5.047,3.45202 5.67455,8.05029 1.35241,13.54527 z"
   id="path14"
   style="mix-blend-mode:darken;fill:url(#linearGradient1112);fill-opacity:1;stroke-width:1.90301"
   clip-path="none" /><path
   fill="#000000"
   opacity="1"
   stroke="none"
   d="m 777.16414,264.26279 c 10.91794,12.89127 12.51533,22.60065 6.07024,34.03453 -6.13827,10.8896 -18.28855,16.33516 -31.65776,14.18844 -14.79235,-2.37527 -24.00741,-17.16826 -21.08163,-33.84243 2.29524,-13.07963 17.01268,-23.34327 30.44278,-21.19159 5.71023,0.91495 11.07526,2.71954 16.22637,6.81105 z"
   id="path103"
   style="mix-blend-mode:darken;fill:url(#linearGradient103);fill-opacity:1;stroke-width:1.90301" />
<path
   fill="#000000"
   opacity="1"
   stroke="none"
   d="m 989.98133,391.3609 c -4.72597,-2.64797 -7.90896,-5.59133 -6.47951,-10.75725 0.85307,-3.08264 2.68292,-5.76254 6.14388,-6.39252 5.04491,-0.91814 10.0555,-0.25111 11.1986,5.52782 1.4816,7.48965 -1.98261,11.92698 -10.86297,11.62195 z"
   id="path15"
   style="mix-blend-mode:darken;fill:url(#linearGradient1111);fill-opacity:1;stroke-width:1.90301"
   clip-path="none" /><path
   fill="#000000"
   opacity="1"
   stroke="none"
   d="m 777.16414,264.26279 c 10.91794,12.89127 12.51533,22.60065 6.07024,34.03453 -6.13827,10.8896 -18.28855,16.33516 -31.65776,14.18844 -14.79235,-2.37527 -24.00741,-17.16826 -21.08163,-33.84243 2.29524,-13.07963 17.01268,-23.34327 30.44278,-21.19159 5.71023,0.91495 11.07526,2.71954 16.22637,6.81105 z"
   id="path102"
   style="mix-blend-mode:darken;fill:url(#linearGradient102);fill-opacity:1;stroke-width:1.90301" />
<path
   fill="#000000"
   opacity="1"
   stroke="none"
   d="m 777.16414,264.26279 c 10.91794,12.89127 12.51533,22.60065 6.07024,34.03453 -6.13827,10.8896 -18.28855,16.33516 -31.65776,14.18844 -14.79235,-2.37527 -24.00741,-17.16826 -21.08163,-33.84243 2.29524,-13.07963 17.01268,-23.34327 30.44278,-21.19159 5.71023,0.91495 11.07526,2.71954 16.22637,6.81105 z"
   id="path101"
   style="mix-blend-mode:darken;fill:url(#linearGradient101);fill-opacity:1;stroke-width:1.90301" />
<path
   fill="#000000"
   opacity="1"
   stroke="none"
   d="m 853.81478,90.177723 c -2.69632,7.306823 -7.92785,7.556195 -13.29137,5.499066 -3.80287,-1.458469 -5.53995,-5.101757 -4.54882,-9.231781 1.08577,-4.524584 4.33621,-6.770266 8.99601,-6.487781 5.84057,0.353978 9.4293,3.074389 8.84418,10.220496 z"
   id="path17"
   style="mix-blend-mode:darken;fill:url(#linearGradient1109);fill-opacity:1;stroke-width:1.90301"
   clip-path="none" /><path
   fill="#000000"
   opacity="1"
   stroke="none"
   d="m 777.16414,264.26279 c 10.91794,12.89127 12.51533,22.60065 6.07024,34.03453 -6.13827,10.8896 -18.28855,16.33516 -31.65776,14.18844 -14.79235,-2.37527 -24.00741,-17.16826 -21.08163,-33.84243 2.29524,-13.07963 17.01268,-23.34327 30.44278,-21.19159 5.71023,0.91495 11.07526,2.71954 16.22637,6.81105 z"
   id="path100"
   style="mix-blend-mode:darken;fill:url(#linearGradient100);fill-opacity:1;stroke-width:1.90301" />
<path
   fill="#000000"
   opacity="1"
   stroke="none"
   d="m 645.66581,47.474991 c -4.55091,-6.617081 -4.54336,-12.018521 3.2823,-14.580041 3.94513,-1.291295 8.42266,-0.543572 10.86857,3.651024 1.90277,3.262994 1.6639,6.717904 -1.02719,9.575179 -3.64185,3.866752 -7.79274,5.290826 -13.12368,1.353838 z"
   id="path18"
   style="mix-blend-mode:darken;fill:url(#linearGradient1108);fill-opacity:1;stroke-width:1.90301"
   clip-path="none" /><path
   fill="#000000"
   opacity="1"
   stroke="none"
   d="m 777.16414,264.26279 c 10.91794,12.89127 12.51533,22.60065 6.07024,34.03453 -6.13827,10.8896 -18.28855,16.33516 -31.65776,14.18844 -14.79235,-2.37527 -24.00741,-17.16826 -21.08163,-33.84243 2.29524,-13.07963 17.01268,-23.34327 30.44278,-21.19159 5.71023,0.91495 11.07526,2.71954 16.22637,6.81105 z"
   id="path99"
   style="mix-blend-mode:darken;fill:url(#linearGradient99);fill-opacity:1;stroke-width:1.90301" />
<path
   fill="#000000"
   opacity="1"
   stroke="none"
   d="m 777.16414,264.26279 c 10.91794,12.89127 12.51533,22.60065 6.07024,34.03453 -6.13827,10.8896 -18.28855,16.33516 -31.65776,14.18844 -14.79235,-2.37527 -24.00741,-17.16826 -21.08163,-33.84243 2.29524,-13.07963 17.01268,-23.34327 30.44278,-21.19159 5.71023,0.91495 11.07526,2.71954 16.22637,6.81105 z"
   id="path98"
   style="mix-blend-mode:darken;fill:url(#linearGradient98);fill-opacity:1;stroke-width:1.90301" />
<path
   fill="#000000"
   opacity="1"
   stroke="none"
   d="m 684.66781,978.72977 c 1.43693,-6.4172 5.14342,-8.49312 10.64138,-6.94656 4.47937,1.26022 7.02436,4.71009 6.52476,9.17646 -0.4704,4.20547 -2.70779,7.85142 -7.84091,7.92192 -6.3082,0.0865 -9.06953,-3.49229 -9.32523,-10.15182 z"
   id="path20"
   style="mix-blend-mode:darken;fill:url(#linearGradient1106);fill-opacity:1;stroke-width:1.90301"
   clip-path="none" /><path
   fill="#000000"
   opacity="1"
   stroke="none"
   d="m 777.16414,264.26279 c 10.91794,12.89127 12.51533,22.60065 6.07024,34.03453 -6.13827,10.8896 -18.28855,16.33516 -31.65776,14.18844 -14.79235,-2.37527 -24.00741,-17.16826 -21.08163,-33.84243 2.29524,-13.07963 17.01268,-23.34327 30.44278,-21.19159 5.71023,0.91495 11.07526,2.71954 16.22637,6.81105 z"
   id="path97"
   style="mix-blend-mode:darken;fill:url(#linearGradient97);fill-opacity:1;stroke-width:1.90301" />
<path
   fill="#000000"
   opacity="1"
   stroke="none"
   d="m 179.00915,902.86173 c 9.12279,1.95166 12.2933,6.2837 9.19387,11.67006 -1.61109,2.79982 -3.96692,5.05422 -7.54761,4.80741 -3.46082,-0.23872 -5.90363,-2.24642 -7.01491,-5.47238 -1.68509,-4.89191 -0.001,-8.53472 5.36865,-11.00509 z"
   id="path21"
   style="mix-blend-mode:darken;fill:url(#linearGradient1105);fill-opacity:1;stroke-width:1.90301"
   clip-path="none" /><path
   fill="#000000"
   opacity="1"
   stroke="none"
   d="m 777.16414,264.26279 c 10.91794,12.89127 12.51533,22.60065 6.07024,34.03453 -6.13827,10.8896 -18.28855,16.33516 -31.65776,14.18844 -14.79235,-2.37527 -24.00741,-17.16826 -21.08163,-33.84243 2.29524,-13.07963 17.01268,-23.34327 30.44278,-21.19159 5.71023,0.91495 11.07526,2.71954 16.22637,6.81105 z"
   id="path96"
   style="mix-blend-mode:darken;fill:url(#linearGradient96);fill-opacity:1;stroke-width:1.90301" />
<path
   fill="#000000"
   opacity="1"
   stroke="none"
   d="m 33.974143,644.41433 c -4.170309,-4.41113 -2.900394,-7.75835 0.807613,-10.72799 3.178553,-2.54573 6.380891,-2.11383 9.402238,0.27686 3.150542,2.49302 3.922516,5.94311 1.808736,9.09186 -2.902842,4.32418 -7.105827,4.55643 -12.018587,1.35927 z"
   id="path22"
   style="mix-blend-mode:darken;fill:url(#linearGradient1104);fill-opacity:1;stroke-width:1.90301"
   clip-path="none" /><path
   fill="#000000"
   opacity="1"
   stroke="none"
   d="m 777.16414,264.26279 c 10.91794,12.89127 12.51533,22.60065 6.07024,34.03453 -6.13827,10.8896 -18.28855,16.33516 -31.65776,14.18844 -14.79235,-2.37527 -24.00741,-17.16826 -21.08163,-33.84243 2.29524,-13.07963 17.01268,-23.34327 30.44278,-21.19159 5.71023,0.91495 11.07526,2.71954 16.22637,6.81105 z"
   id="path95"
   style="mix-blend-mode:darken;fill:url(#linearGradient95);fill-opacity:1;stroke-width:1.90301" />
<path
   fill="#000000"
   opacity="1"
   stroke="none"
   d="m 370.56018,1001.1382 c -3.56995,-1.20469 -6.55277,-2.61381 -5.51271,-6.50691 0.5842,-2.18665 3.10479,-2.62884 4.46616,-1.26945 2.02175,2.01929 5.97473,4.2435 1.04655,7.77636 z"
   id="path23"
   style="mix-blend-mode:darken;fill:url(#linearGradient1103);fill-opacity:1;stroke-width:1.90301"
   clip-path="none" /><path
   fill="#000000"
   opacity="1"
   stroke="none"
   d="m 777.16414,264.26279 c 10.91794,12.89127 12.51533,22.60065 6.07024,34.03453 -6.13827,10.8896 -18.28855,16.33516 -31.65776,14.18844 -14.79235,-2.37527 -24.00741,-17.16826 -21.08163,-33.84243 2.29524,-13.07963 17.01268,-23.34327 30.44278,-21.19159 5.71023,0.91495 11.07526,2.71954 16.22637,6.81105 z"
   id="path94"
   style="mix-blend-mode:darken;fill:url(#linearGradient94);fill-opacity:1;stroke-width:1.90301" />
<path
   fill="#000000"
   opacity="1"
   stroke="none"
   d="m 449.02178,591.47239 c -48.2924,-36.85575 -47.2326,-103.01541 -18.78487,-140.41681 35.6823,-46.91314 105.82456,-51.29035 147.57962,-18.10317 42.22699,33.56214 50.60636,97.52183 17.73772,139.26975 -36.55622,46.43175 -99.38636,54.90997 -146.53247,19.25023 m 114.1722,-108.10961 c 12.67797,0.80159 18.16578,-4.09352 15.94382,-14.22174 -2.39084,-10.89845 -17.8283,-24.80308 -29.03729,-26.13883 -4.94267,-0.58901 -9.49256,-0.18315 -12.8444,4.2266 -3.36712,4.4298 -2.5131,8.81468 -0.37413,13.33551 5.15566,10.89667 14.20909,17.50664 26.312,22.79846 m 17.82396,19.53474 c -1.90489,-4.13045 -5.06138,-5.67902 -9.27901,-3.7746 -2.64838,1.19592 -3.10456,3.8576 -2.6724,6.51372 0.4411,2.7115 1.97945,5.02679 4.77055,5.21741 4.46304,0.30462 7.1707,-2.00175 7.18086,-7.95653 z"
   id="path24"
   style="mix-blend-mode:darken;fill:url(#linearGradient1102);fill-opacity:1;stroke:url(#linearGradient1365);stroke-width:1.90301"
   clip-path="none" /><path
   fill="#000000"
   opacity="1"
   stroke="none"
   d="m 777.16414,264.26279 c 10.91794,12.89127 12.51533,22.60065 6.07024,34.03453 -6.13827,10.8896 -18.28855,16.33516 -31.65776,14.18844 -14.79235,-2.37527 -24.00741,-17.16826 -21.08163,-33.84243 2.29524,-13.07963 17.01268,-23.34327 30.44278,-21.19159 5.71023,0.91495 11.07526,2.71954 16.22637,6.81105 z"
   id="path93"
   style="mix-blend-mode:darken;fill:url(#linearGradient93);fill-opacity:1;stroke-width:1.90301" />
<path
   fill="#000000"
   opacity="1"
   stroke="none"
   d="m 495.43038,141.59822 c -11.38326,0.19844 -21.86047,0.35981 -32.3382,0.47791 -4.58958,0.0517 -8.73011,-1.46709 -8.82553,-6.48074 -0.103,-5.41804 4.45185,-6.11739 8.86158,-6.11542 32.3922,0.0152 64.78446,0.005 97.17651,0.0888 4.4712,0.0117 10.02238,0.0984 10.19975,5.90388 0.20003,6.54269 -5.65828,6.38646 -10.45358,6.62142 -21.24862,1.04108 -42.44931,-3.412 -64.62053,-0.49582 z"
   id="path25"
   style="mix-blend-mode:darken;fill:url(#linearGradient1497);fill-opacity:1;stroke-width:1.90301"
   clip-path="none" /><path
   fill="#000000"
   opacity="1"
   stroke="none"
   d="m 777.16414,264.26279 c 10.91794,12.89127 12.51533,22.60065 6.07024,34.03453 -6.13827,10.8896 -18.28855,16.33516 -31.65776,14.18844 -14.79235,-2.37527 -24.00741,-17.16826 -21.08163,-33.84243 2.29524,-13.07963 17.01268,-23.34327 30.44278,-21.19159 5.71023,0.91495 11.07526,2.71954 16.22637,6.81105 z"
   id="path92"
   style="mix-blend-mode:darken;fill:url(#linearGradient92);fill-opacity:1;stroke-width:1.90301" />
<path
   fill="#000000"
   opacity="1"
   stroke="none"
   d="m 511.19796,146.54562 c 7.62093,0.0318 14.29403,0.0233 20.96562,0.11322 3.06021,0.0413 5.77826,0.72715 5.99835,4.53278 0.2284,3.94893 -1.95051,5.47037 -5.65047,6.08427 -6.06369,1.00616 -15.55731,-3.18301 -17.59559,2.69133 -3.17916,9.1623 -3.44085,19.94121 -2.34716,29.7516 0.99707,8.94385 -1.61794,15.72371 -5.98044,23.08647 -7.58593,-3.52606 -8.82359,-8.81528 -6.12428,-15.67951 4.44058,-11.29226 2.48693,-22.83717 1.23965,-34.33861 -0.64443,-5.94179 -4.99702,-5.31735 -9.265,-5.1966 -3.89867,0.11047 -8.09778,-0.0707 -8.27394,-5.4306 -0.1828,-5.55992 4.07075,-5.52546 7.97286,-5.57225 6.03655,-0.0723 12.07454,-0.0339 19.0604,-0.0423 z"
   id="path26"
   style="mix-blend-mode:darken;fill:url(#linearGradient1100);fill-opacity:1;stroke-width:1.90301"
   clip-path="none" /><path
   fill="#000000"
   opacity="1"
   stroke="none"
   d="m 777.16414,264.26279 c 10.91794,12.89127 12.51533,22.60065 6.07024,34.03453 -6.13827,10.8896 -18.28855,16.33516 -31.65776,14.18844 -14.79235,-2.37527 -24.00741,-17.16826 -21.08163,-33.84243 2.29524,-13.07963 17.01268,-23.34327 30.44278,-21.19159 5.71023,0.91495 11.07526,2.71954 16.22637,6.81105 z"
   id="path91"
   style="mix-blend-mode:darken;fill:url(#linearGradient91);fill-opacity:1;stroke-width:1.90301" />
<path
   fill="#000000"
   opacity="1"
   stroke="none"
   d="m 542.25763,178.73011 c -0.45118,-7.16226 2.89881,-10.71864 9.16276,-11.18962 5.71969,-0.43003 9.77312,2.62291 11.36583,7.90265 1.5038,4.98508 -1.67101,8.69495 -5.72224,10.63549 -7.09357,3.3978 -12.02925,0.54364 -14.80635,-7.34852 z"
   id="path27"
   style="mix-blend-mode:darken;fill:url(#linearGradient1099);fill-opacity:1;stroke-width:1.90301"
   clip-path="none" /><path
   fill="#000000"
   opacity="1"
   stroke="none"
   d="m 777.16414,264.26279 c 10.91794,12.89127 12.51533,22.60065 6.07024,34.03453 -6.13827,10.8896 -18.28855,16.33516 -31.65776,14.18844 -14.79235,-2.37527 -24.00741,-17.16826 -21.08163,-33.84243 2.29524,-13.07963 17.01268,-23.34327 30.44278,-21.19159 5.71023,0.91495 11.07526,2.71954 16.22637,6.81105 z"
   id="path90"
   style="mix-blend-mode:darken;fill:url(#linearGradient90);fill-opacity:1;stroke-width:1.90301" />
<path
   fill="#000000"
   opacity="1"
   stroke="none"
   d="m 477.52971,173.32907 c 3.37949,7.73774 -0.82665,11.52393 -6.54511,13.65902 -4.64937,1.73598 -9.04735,-0.34503 -11.27,-4.69736 -2.33627,-4.57493 -1.90751,-9.40385 2.63058,-12.6768 5.85701,-4.22401 10.69438,-1.94423 15.18453,3.71514 z"
   id="path28"
   style="mix-blend-mode:darken;fill:url(#linearGradient1098);fill-opacity:1;stroke-width:1.90301"
   clip-path="none" /><path
   fill="#000000"
   opacity="1"
   stroke="none"
   d="m 777.16414,264.26279 c 10.91794,12.89127 12.51533,22.60065 6.07024,34.03453 -6.13827,10.8896 -18.28855,16.33516 -31.65776,14.18844 -14.79235,-2.37527 -24.00741,-17.16826 -21.08163,-33.84243 2.29524,-13.07963 17.01268,-23.34327 30.44278,-21.19159 5.71023,0.91495 11.07526,2.71954 16.22637,6.81105 z"
   id="path89"
   style="mix-blend-mode:darken;fill:url(#linearGradient89);fill-opacity:1;stroke-width:1.90301" />
<path
   fill="#000000"
   opacity="1"
   stroke="none"
   d="m 517.93815,100.62662 c 5.05238,6.16485 3.63018,11.06121 -1.7639,14.92434 -4.00325,2.86709 -8.39558,2.73201 -11.92908,-0.98786 -3.93199,-4.13957 -4.54865,-9.08138 -0.98231,-13.57441 4.0892,-5.15168 9.15711,-4.491806 14.67529,-0.36207 z"
   id="path29"
   style="mix-blend-mode:darken;fill:url(#linearGradient1097);fill-opacity:1;stroke-width:1.90301"
   clip-path="none" /><path
   fill="#000000"
   opacity="1"
   stroke="none"
   d="m 777.16414,264.26279 c 10.91794,12.89127 12.51533,22.60065 6.07024,34.03453 -6.13827,10.8896 -18.28855,16.33516 -31.65776,14.18844 -14.79235,-2.37527 -24.00741,-17.16826 -21.08163,-33.84243 2.29524,-13.07963 17.01268,-23.34327 30.44278,-21.19159 5.71023,0.91495 11.07526,2.71954 16.22637,6.81105 z"
   id="path88"
   style="mix-blend-mode:darken;fill:url(#linearGradient88);fill-opacity:1;stroke-width:1.90301" />
<path
   fill="#000000"
   opacity="1"
   stroke="none"
   d="m 465.48854,891.46591 c 15.21639,-4.91448 23.6507,-17.33225 36.93642,-26.60893 -11.95382,-10.30211 -21.5861,-21.03196 -35.79161,-25.6773 -4.98206,-1.62933 -7.49792,-4.30013 -7.60893,-9.39761 -0.10326,-4.74128 2.13052,-7.93416 6.66081,-9.13564 4.71851,-1.25142 10.1847,-0.39872 11.31009,4.34362 3.5768,15.0724 18.95304,17.39096 28.28358,27.08221 0.44602,-13.16193 4.08663,-26.00097 -1.04703,-38.65168 -1.62188,-3.99681 -2.56319,-7.76795 -0.21047,-11.73493 1.59639,-2.69161 3.93914,-4.06012 7.08956,-3.9287 3.69394,0.15418 4.1478,2.74503 4.98895,5.71307 3.01586,10.64082 -0.032,21.32868 0.71524,31.97043 0.3661,5.21342 0.0635,10.47288 1.35735,16.2598 9.27352,-8.53659 23.85266,-10.12189 27.3596,-24.54597 1.15952,-4.76961 5.50727,-6.92275 10.55406,-5.90613 4.77603,0.9623 8.29955,4.13425 8.70753,8.86883 0.46082,5.34903 -3.09802,9.20432 -8.14632,10.25946 -14.75526,3.08421 -22.33114,16.01596 -36.46122,22.84934 13.17372,9.75726 21.87787,21.18051 35.22689,26.95264 5.07887,2.19626 8.71125,5.43213 7.82084,11.50023 -0.74362,5.06891 -4.24564,7.90514 -9.05342,8.30502 -4.9715,0.41352 -9.34798,-2.44249 -10.0142,-7.09268 -2.11112,-14.7337 -16.59258,-16.50268 -25.15833,-25.00365 -0.92566,13.61035 -4.80543,26.85379 0.96627,39.88635 2.11039,4.76511 2.27366,9.41204 -1.95845,12.93327 -3.03091,2.5219 -6.74212,3.19148 -10.65283,1.03477 -5.32296,-2.93568 -5.92625,-8.24885 -4.06569,-12.34149 6.40177,-14.08282 2.1514,-28.45653 1.99025,-43.39887 -8.91136,9.23194 -24.37052,11.47953 -26.74775,27.33667 -0.62936,4.19794 -4.34787,7.20585 -9.07018,6.94134 -4.37143,-0.24484 -7.9009,-2.56387 -9.54594,-6.79811 -2.0668,-5.31979 -0.0503,-9.16999 5.56493,-12.01536 z"
   id="path30"
   style="mix-blend-mode:darken;fill:url(#linearGradient1096);fill-opacity:1;stroke-width:1.90301"
   clip-path="none" /><path
   fill="#000000"
   opacity="1"
   stroke="none"
   d="m 777.16414,264.26279 c 10.91794,12.89127 12.51533,22.60065 6.07024,34.03453 -6.13827,10.8896 -18.28855,16.33516 -31.65776,14.18844 -14.79235,-2.37527 -24.00741,-17.16826 -21.08163,-33.84243 2.29524,-13.07963 17.01268,-23.34327 30.44278,-21.19159 5.71023,0.91495 11.07526,2.71954 16.22637,6.81105 z"
   id="path87"
   style="mix-blend-mode:darken;fill:url(#linearGradient87);fill-opacity:1;stroke-width:1.90301" />
<path
   fill="#000000"
   opacity="1"
   stroke="none"
   d="m 439.52922,859.99152 c 5.38882,-4.88971 9.95796,-3.44849 13.68526,0.84611 2.93419,3.38086 3.33762,7.50447 0.27244,11.23445 -3.05415,3.71645 -7.41601,4.12419 -11.25483,2.26111 -6.27383,-3.04491 -5.55484,-8.37637 -2.70287,-14.34167 z"
   id="path31"
   style="mix-blend-mode:darken;fill:url(#linearGradient1095);fill-opacity:1;stroke-width:1.90301"
   clip-path="none" /><path
   fill="#000000"
   opacity="1"
   stroke="none"
   d="m 777.16414,264.26279 c 10.91794,12.89127 12.51533,22.60065 6.07024,34.03453 -6.13827,10.8896 -18.28855,16.33516 -31.65776,14.18844 -14.79235,-2.37527 -24.00741,-17.16826 -21.08163,-33.84243 2.29524,-13.07963 17.01268,-23.34327 30.44278,-21.19159 5.71023,0.91495 11.07526,2.71954 16.22637,6.81105 z"
   id="path86"
   style="mix-blend-mode:darken;fill:url(#linearGradient86);fill-opacity:1;stroke-width:1.90301" />
<path
   fill="#000000"
   opacity="1"
   stroke="none"
   d="m 586.24515,867.01635 c -0.94271,7.43211 -5.43376,8.77613 -11.08295,7.74645 -4.64103,-0.84602 -7.05646,-4.02814 -7.04049,-8.67719 0.0153,-4.68937 2.66613,-8.03557 7.16138,-8.64478 6.29735,-0.85374 10.20092,2.30827 10.96206,9.57552 z"
   id="path32"
   style="mix-blend-mode:darken;fill:url(#linearGradient1094);fill-opacity:1;stroke-width:1.90301"
   clip-path="none" /><path
   fill="#000000"
   opacity="1"
   stroke="none"
   d="m 777.16414,264.26279 c 10.91794,12.89127 12.51533,22.60065 6.07024,34.03453 -6.13827,10.8896 -18.28855,16.33516 -31.65776,14.18844 -14.79235,-2.37527 -24.00741,-17.16826 -21.08163,-33.84243 2.29524,-13.07963 17.01268,-23.34327 30.44278,-21.19159 5.71023,0.91495 11.07526,2.71954 16.22637,6.81105 z"
   id="path85"
   style="mix-blend-mode:darken;fill:url(#linearGradient85);fill-opacity:1;stroke-width:1.90301" />
<path
   fill="#000000"
   opacity="1"
   stroke="none"
   d="m 770.3217,754.63322 c -9.16194,6.32576 -17.81359,6.50369 -26.28187,0.39802 -6.93173,-4.99772 -10.76473,-11.83339 -9.4033,-20.41162 1.51359,-9.53794 7.34156,-15.83607 16.74114,-18.76144 8.97826,-2.79427 20.22328,1.8002 25.40125,10.42036 5.38814,8.97011 3.42992,18.27293 -6.45722,28.35468 m -3.48464,-18.71951 c -1.3369,-6.95327 -6.04702,-9.59344 -12.44003,-8.02213 -5.0769,1.24794 -7.72038,5.63756 -7.07924,10.8259 0.64698,5.23572 4.23118,8.56607 9.64031,8.52492 6.20982,-0.0471 10.09169,-3.17429 9.87896,-11.32869 z"
   id="path33"
   style="mix-blend-mode:darken;fill:url(#linearGradient1093);fill-opacity:1;stroke-width:1.90301"
   clip-path="none" /><path
   fill="#000000"
   opacity="1"
   stroke="none"
   d="m 777.16414,264.26279 c 10.91794,12.89127 12.51533,22.60065 6.07024,34.03453 -6.13827,10.8896 -18.28855,16.33516 -31.65776,14.18844 -14.79235,-2.37527 -24.00741,-17.16826 -21.08163,-33.84243 2.29524,-13.07963 17.01268,-23.34327 30.44278,-21.19159 5.71023,0.91495 11.07526,2.71954 16.22637,6.81105 z"
   id="path84"
   style="mix-blend-mode:darken;fill:url(#linearGradient84);fill-opacity:1;stroke-width:1.90301" />
<path
   fill="#000000"
   opacity="1"
   stroke="none"
   d="m 837.09724,745.22902 c 2.9372,6.57699 1.41603,11.19283 -4.717,13.52272 -4.73624,1.79928 -7.77928,-1.31695 -10.14223,-4.8466 -2.88724,-4.3132 -0.84967,-7.94805 2.54744,-10.64013 4.1252,-3.26894 8.23479,-2.18446 12.31179,1.96401 z"
   id="path34"
   style="mix-blend-mode:darken;fill:url(#linearGradient1092);fill-opacity:1;stroke-width:1.90301"
   clip-path="none" /><path
   fill="#000000"
   opacity="1"
   stroke="none"
   d="m 777.16414,264.26279 c 10.91794,12.89127 12.51533,22.60065 6.07024,34.03453 -6.13827,10.8896 -18.28855,16.33516 -31.65776,14.18844 -14.79235,-2.37527 -24.00741,-17.16826 -21.08163,-33.84243 2.29524,-13.07963 17.01268,-23.34327 30.44278,-21.19159 5.71023,0.91495 11.07526,2.71954 16.22637,6.81105 z"
   id="path83"
   style="mix-blend-mode:darken;fill:url(#linearGradient83);fill-opacity:1;stroke-width:1.90301" />
<path
   fill="#000000"
   opacity="1"
   stroke="none"
   d="m 199.88854,271.8434 c 4.43405,6.09417 4.10741,11.10173 -2.11425,14.66895 -4.94319,2.83411 -9.11439,1.04444 -12.208,-3.32803 -3.07438,-4.34557 -1.85358,-8.36815 1.71394,-11.69755 3.84797,-3.59115 8.03025,-2.59445 12.60831,0.35663 z"
   id="path35"
   style="mix-blend-mode:darken;fill:url(#linearGradient1091);fill-opacity:1;stroke-width:1.90301"
   clip-path="none" /><path
   fill="#000000"
   opacity="1"
   stroke="none"
   d="m 777.16414,264.26279 c 10.91794,12.89127 12.51533,22.60065 6.07024,34.03453 -6.13827,10.8896 -18.28855,16.33516 -31.65776,14.18844 -14.79235,-2.37527 -24.00741,-17.16826 -21.08163,-33.84243 2.29524,-13.07963 17.01268,-23.34327 30.44278,-21.19159 5.71023,0.91495 11.07526,2.71954 16.22637,6.81105 z"
   id="path82"
   style="mix-blend-mode:darken;fill:url(#linearGradient82);fill-opacity:1;stroke-width:1.90301" />
<path
   fill="#000000"
   opacity="1"
   stroke="none"
   d="m 269.54632,285.48612 c 6.30591,-5.73051 11.13792,-3.32524 14.6082,2.05552 3.23958,5.02314 0.16501,8.90686 -4.02624,11.88414 -2.98775,2.12234 -6.0172,1.62519 -8.73507,-0.56535 -4.42426,-3.56559 -4.19945,-8.03719 -1.84689,-13.37431 z"
   id="path36"
   style="mix-blend-mode:darken;fill:url(#linearGradient1090);fill-opacity:1;stroke-width:1.90301"
   clip-path="none" /><path
   fill="#000000"
   opacity="1"
   stroke="none"
   d="m 777.16414,264.26279 c 10.91794,12.89127 12.51533,22.60065 6.07024,34.03453 -6.13827,10.8896 -18.28855,16.33516 -31.65776,14.18844 -14.79235,-2.37527 -24.00741,-17.16826 -21.08163,-33.84243 2.29524,-13.07963 17.01268,-23.34327 30.44278,-21.19159 5.71023,0.91495 11.07526,2.71954 16.22637,6.81105 z"
   id="path81"
   style="mix-blend-mode:darken;fill:url(#linearGradient81);fill-opacity:1;stroke-width:1.90301" />
<path
   fill="#000000"
   opacity="1"
   stroke="none"
   d="m 271.03424,738.28326 c -13.74258,0.72761 -21.27775,-3.62906 -23.85045,-13.15291 -2.53706,-9.39194 0.84233,-17.87558 8.71681,-21.88221 8.48079,-4.31519 18.48747,-2.24399 24.02432,4.97216 6.12754,7.98594 5.78614,17.78737 -1.18648,24.99553 -1.92565,1.99085 -4.59902,3.27174 -7.7042,5.06743 z"
   id="path37"
   style="mix-blend-mode:darken;fill:url(#linearGradient1089);fill-opacity:1;stroke-width:1.90301"
   clip-path="none" /><path
   fill="#000000"
   opacity="1"
   stroke="none"
   d="m 777.16414,264.26279 c 10.91794,12.89127 12.51533,22.60065 6.07024,34.03453 -6.13827,10.8896 -18.28855,16.33516 -31.65776,14.18844 -14.79235,-2.37527 -24.00741,-17.16826 -21.08163,-33.84243 2.29524,-13.07963 17.01268,-23.34327 30.44278,-21.19159 5.71023,0.91495 11.07526,2.71954 16.22637,6.81105 z"
   id="path80"
   style="mix-blend-mode:darken;fill:url(#linearGradient80);fill-opacity:1;stroke-width:1.90301" />
<path
   fill="#000000"
   opacity="1"
   stroke="none"
   d="m 196.17663,707.75198 c 3.62589,6.60102 1.64219,11.17594 -4.36311,13.32587 -5.10279,1.82665 -9.56078,-0.36094 -11.3517,-5.58523 -1.63123,-4.7585 0.3407,-8.57542 4.95306,-10.82867 4.09295,-1.9996 7.28246,-0.13316 10.76175,3.08803 z"
   id="path38"
   style="mix-blend-mode:darken;fill:url(#linearGradient1088);fill-opacity:1;stroke-width:1.90301"
   clip-path="none" /><path
   fill="#000000"
   opacity="1"
   stroke="none"
   d="m 777.16414,264.26279 c 10.91794,12.89127 12.51533,22.60065 6.07024,34.03453 -6.13827,10.8896 -18.28855,16.33516 -31.65776,14.18844 -14.79235,-2.37527 -24.00741,-17.16826 -21.08163,-33.84243 2.29524,-13.07963 17.01268,-23.34327 30.44278,-21.19159 5.71023,0.91495 11.07526,2.71954 16.22637,6.81105 z"
   id="path79"
   style="mix-blend-mode:darken;fill:url(#linearGradient79);fill-opacity:1;stroke-width:1.90301" />

<path
   fill="#000000"
   opacity="1"
   stroke="none"
   d="m 882.79697,496.36024 c 5.85634,3.86704 6.48325,8.40608 2.76859,13.07628 -2.42969,3.0546 -5.96732,4.47459 -10.05669,2.49299 -4.21099,-2.04052 -6.23303,-5.33784 -5.02742,-9.84179 1.59471,-5.95798 5.88772,-7.55836 12.31552,-5.72748 z"
   id="path40"
   style="mix-blend-mode:darken;fill:url(#linearGradient1086);fill-opacity:1;stroke-width:1.90301" />
</svg>
